<svg xmlns="http://www.w3.org/2000/svg" viewBox="0 0 195.02 171.69"><defs><style>.cls-1{fill:#fff;stroke:#000;stroke-miterlimit:10;}.cls-2{fill:#fdfdfd;}</style></defs><title>call-of-duty-img</title><g id="Layer_2" data-name="Layer 2"><g id="Skull"><path d="M4.93,137.18a17.43,17.43,0,0,1,11.08-1c2.78.67,5.72,2.24,6.77,5.06,1,3.25.82,6.72.83,10.09-3.33,0-6.66,0-10,0-.07-2.79.15-5.6-.14-8.39.06-1.93-3.35-1.91-3.3,0-.36,4.38-.08,8.79-.17,13.18.08,2.8-.2,5.64.24,8.42.27,1.11,1.67,1.2,2.55.82.68-.49.69-1.38.76-2.13.11-2.09,0-4.17.05-6.26h10c-.1,3.17.18,6.54-1.15,9.5-2.21,3.66-6.82,5-10.87,4.9-3.58,0-7.67-.86-9.9-3.94C.1,165,.16,161.88,0,159c0-5.06-.17-10.12.18-15.17A8.09,8.09,0,0,1,4.93,137.18Zm24-.8q7.25-.1,14.5,0c1.84,11.45,3.8,22.88,5.67,34.33H39.81c-.27-2.14-.48-4.3-.81-6.43-1.11,0-2.22,0-3.33,0,.2-1.92.42-3.83.62-5.75h2c-.62-4.9-1.09-9.83-1.84-14.72-1,9-2.14,17.93-3.21,26.9H23.92c1.66-11.44,3.42-22.87,5-34.32Zm21.88,0h9.94q0,13.73,0,27.46h6.07c0,2.3,0,4.59,0,6.89h-16q0-17.18,0-34.36Zm18.38,0h10q0,13.73,0,27.46h6q0,3.45,0,6.89h-16q0-17.18,0-34.36Zm28.35,0c4.39,0,8.78,0,13.17.19,2.31.17,4.72.33,6.78,1.49a6.4,6.4,0,0,1,3,5.38c.3,6,.13,12,.15,17.95-.12,2.47.14,5.34-1.65,7.31-2,1.82-4.85,1.91-7.41,2-4.68.05-9.37,0-14.06,0q0-17.18,0-34.36m10,5.91q0,11.31,0,22.62c.95-.21,2.39,0,2.81-1.14.59-2.48.27-5.06.35-7.59-.08-4.13.18-8.29-.15-12.42C110.43,142.24,108.64,142.3,107.54,142.26Zm15.63-5.91h9.91q0,12.52,0,25a19.43,19.43,0,0,0,.2,3.31c.15,1.25,2.36,1.19,2.45-.06a17.24,17.24,0,0,0,.21-3.27c0-8.34,0-16.67,0-25,3.3,0,6.61,0,9.92,0,0,8,0,16,0,24.07-.1,2.21.14,4.64-1.17,6.56-1.56,2.62-4.6,4-7.53,4.26-3.72.42-7.76,0-10.88-2.25a7.46,7.46,0,0,1-3-6.16c-.24-8.82-.07-17.65-.12-26.47Zm24.82,0h21.82c0,2.3,0,4.59,0,6.89h-5.91V170.7h-10V143.24H148c0-2.3,0-4.6,0-6.9Zm23.61,0c3.06,0,6.12-.08,9.18.06,1.88,6.17,3.93,12.28,5.88,18.43.45,1.52,1.18,3,1.14,4.63,0,3.81,0,7.62,0,11.43h-9.19c0-3.65,0-7.31,0-11a7.52,7.52,0,0,0-.3-2.45c-2.25-7-4.46-14.09-6.7-21.14Zm14.3,0H195c-2.14,6.5-4.26,13-6.4,19.52-1.36-4.34-2.88-8.64-4.12-13C184.79,140.65,185.46,138.52,185.9,136.35Z"/><path d="M84.09,144.58c1.75-.77,4.36,0,4.65,2.08a46.07,46.07,0,0,1,0,7.66c-.53,2.92-5.41,3.06-6.18.23a43.15,43.15,0,0,1-.17-6.9,3.08,3.08,0,0,1,1.73-3.06m1.19,1.62c-.21,2.81-.12,5.63-.05,8.44l.67-.22a46.37,46.37,0,0,0,.06-7.85l-.67-.38Zm4.49-1.65h4.51c0,.78,0,1.56,0,2.35H92.44c0,.75,0,1.5,0,2.25l1.64,0c0,.72,0,1.43,0,2.15H92.44c0,1.67,0,3.33,0,5H89.78q0-5.91,0-11.8Z"/><path d="M191.36,167.63a2.17,2.17,0,0,1,1.58.6,1.93,1.93,0,0,1,.62,1.43,1.9,1.9,0,0,1-.63,1.43,2.23,2.23,0,0,1-3,0,1.95,1.95,0,0,1-.3-2.52,2,2,0,0,1,.83-.72,2.27,2.27,0,0,1,.93-.22Zm.11.39a1.73,1.73,0,0,0-1.28.49,1.57,1.57,0,0,0-.49,1.14,1.53,1.53,0,0,0,.51,1.15,1.78,1.78,0,0,0,2.43,0,1.56,1.56,0,0,0,.25-2,1.61,1.61,0,0,0-.66-.59,1.76,1.76,0,0,0-.77-.19Zm-1,2.72v-2.15h1.08a.82.82,0,0,1,.58.18.58.58,0,0,1,.18.43.54.54,0,0,1-.15.4.85.85,0,0,1-.46.2.56.56,0,0,1,.22.14,2.67,2.67,0,0,1,.26.37l.27.43h-.57l-.19-.35a1.62,1.62,0,0,0-.3-.42.51.51,0,0,0-.34-.11h-.12v.88h-.46Zm.46-1.22h.38a.85.85,0,0,0,.4-.07.25.25,0,0,0,.12-.23.23.23,0,0,0-.12-.21.7.7,0,0,0-.36-.07h-.42v.59Z"/><path class="cls-1" d="M112.92,50.06c0-.1,0-.22,0-.3-.39-.65-.15-1.85-1.14-1.92s-1,1-1.3,1.67a3.25,3.25,0,0,1-1.94,1.58c-4.24,1.46-8.2,1.12-11.49-2.2-4.19-4.24-7-9.15-6.57-15.37a20.29,20.29,0,0,1,.93-4A1.82,1.82,0,0,1,91.82,28c2.63-4,5.89-7.2,10.71-8.45,1.09-.28,2.08-1.06,3.3-.61a1,1,0,0,0,1-.16c1.2-.77,2.57-.45,3.84-.45A20.45,20.45,0,0,1,122.1,21.6a12.83,12.83,0,0,1,5.22,7.21,14.92,14.92,0,0,0,3.74,6.09c1.1,1.14,1.1,1.67.24,2.87-.85,1.69-1.88.45-3.3-.1.93,1.6,1.33,2.89.33,4.23-1.33,1.8-2.5-.48-3.76-.05.29.41.55.83.87,1.22a1.54,1.54,0,0,1,0,2.28c-.71.76-1.47,1.07-2.38.4-1.35-1-2.48-.62-3.62.43-1.48,1.36-3,2.64-4.56,4A1.2,1.2,0,0,1,112.92,50.06Z"/><path class="cls-2" d="M129.48,29.46c-.37-.2-.76-.35-.64-.75,0-.09.21-.12.32-.18Z"/><path d="M116.81,40.61c-2.32,1.64-3.38,1.45-4.92-1q-1.18-1.85-2.23-3.78a4.6,4.6,0,0,1,2.3-6.09,2.6,2.6,0,0,1,2.19.16,13.74,13.74,0,0,1,5.27,4.43,2.86,2.86,0,0,1,.2,3.14A7.85,7.85,0,0,1,116.81,40.61Z"/><path d="M119.12,29.42c-.36-.77-.77-1.53-1.07-2.32-.4-1-.53-2.07.62-2.81s2.34-1,3.5-.11a33.47,33.47,0,0,1,2.56,2.35,1.69,1.69,0,0,1,0,2.75,8.85,8.85,0,0,1-1.16,1C121.6,31.49,120.48,31.26,119.12,29.42Z"/><path d="M123.45,38c-.28.19-.56.22-.73,0a3.26,3.26,0,0,1-.54-2.57c0-.46.14-.95.72-1a3,3,0,0,1,2.09.73.55.55,0,0,1,.16.8c-.32.42-1.05.13-1.3.64A8.1,8.1,0,0,0,123.45,38Z"/><path class="cls-1" d="M120.36,73.34c0-.09.13-.18.13-.27,0-.76.76-1.69-.07-2.23s-1.34.44-1.94.83a3.25,3.25,0,0,1-2.47.45c-4.42-.77-7.72-3-9-7.48-1.62-5.74-1.67-11.37,1.68-16.64a20.29,20.29,0,0,1,2.72-3c.14-.61.62-.89,1.12-1.15,4.24-2.24,8.64-3.46,13.46-2.23,1.09.28,2.33.08,3.18,1.06a1,1,0,0,0,.92.32c1.42-.09,2.47.85,3.57,1.46a20.45,20.45,0,0,1,8.48,8.4,12.83,12.83,0,0,1,1.09,8.84,14.92,14.92,0,0,0,.33,7.14c.41,1.53.15,2-1.18,2.63-1.57,1.07-1.86-.51-2.84-1.68,0,1.85-.24,3.17-1.75,3.86-2,.93-2-1.63-3.27-1.86.05.49.09,1,.17,1.48a1.54,1.54,0,0,1-1.11,2c-1,.32-1.8.23-2.28-.8-.7-1.53-1.88-1.74-3.38-1.38-2,.47-3.94.84-5.91,1.27C121.14,74.55,120.54,74.29,120.36,73.34Z"/><path class="cls-2" d="M144.81,63.31c-.23-.36-.49-.67-.19-1,.06-.06.24,0,.37,0Z"/><path d="M128.33,67c-2.82.32-3.66-.36-3.85-3.22-.1-1.46-.14-2.93-.12-4.39a4.6,4.6,0,0,1,5-4.22,2.6,2.6,0,0,1,1.84,1.2,13.74,13.74,0,0,1,2.48,6.42,2.86,2.86,0,0,1-1.34,2.85A7.85,7.85,0,0,1,128.33,67Z"/><path d="M135.76,58.26c.06-.85.07-1.71.18-2.55.15-1.11.54-2.07,1.9-2.16s2.55.23,3.12,1.59a33.47,33.47,0,0,1,1.1,3.29,1.69,1.69,0,0,1-1.37,2.39,8.85,8.85,0,0,1-1.48.28C136.93,61.28,136.06,60.54,135.76,58.26Z"/><path d="M135.42,67.86c-.34,0-.6-.08-.65-.34a3.26,3.26,0,0,1,.77-2.51c.26-.38.58-.76,1.11-.52a3,3,0,0,1,1.47,1.65.55.55,0,0,1-.25.78c-.48.22-1-.4-1.44-.07A8.1,8.1,0,0,0,135.42,67.86Z"/><path class="cls-1" d="M90.47,120.49c0-.1.07-.21,0-.29-.26-.72.2-1.85-.76-2.1s-1.14.83-1.58,1.39a3.25,3.25,0,0,1-2.2,1.19c-4.44.64-8.27-.43-10.87-4.31-3.32-5-5.12-10.29-3.58-16.33a20.29,20.29,0,0,1,1.65-3.72,1.82,1.82,0,0,1,.7-1.44c3.33-3.45,7.13-6,12.1-6.3,1.13-.07,2.24-.65,3.35,0a1,1,0,0,0,1,0c1.32-.53,2.61,0,3.85.28a20.45,20.45,0,0,1,10.67,5.35,12.83,12.83,0,0,1,3.78,8.06,14.92,14.92,0,0,0,2.53,6.68c.87,1.33.77,1.85-.3,2.87-1.16,1.5-1.93.09-3.22-.72.61,1.75.76,3.09-.47,4.22-1.64,1.51-2.37-.94-3.69-.75.21.45.39.92.62,1.36a1.54,1.54,0,0,1-.44,2.24c-.84.62-1.64.78-2.41-.05-1.14-1.23-2.32-1.07-3.64-.26-1.71,1.06-3.48,2-5.22,3A1.2,1.2,0,0,1,90.47,120.49Z"/><path class="cls-2" d="M110.6,103.35c-.33-.27-.68-.48-.48-.86,0-.08.23-.08.35-.12Z"/><path d="M96.06,111.94c-2.59,1.18-3.59.79-4.66-1.86q-.82-2-1.48-4.13a4.6,4.6,0,0,1,3.4-5.55,2.6,2.6,0,0,1,2.12.57,13.74,13.74,0,0,1,4.35,5.34,2.86,2.86,0,0,1-.39,3.12A7.85,7.85,0,0,1,96.06,111.94Z"/><path d="M100.42,101.37c-.21-.83-.47-1.65-.62-2.48-.2-1.1-.13-2.13,1.13-2.64s2.49-.57,3.46.55a33.47,33.47,0,0,1,2.07,2.78,1.69,1.69,0,0,1-.56,2.69,8.85,8.85,0,0,1-1.32.73C102.47,103.87,101.41,103.43,100.42,101.37Z"/><path d="M103.08,110.59c-.31.14-.59.11-.72-.12a3.26,3.26,0,0,1-.05-2.63c.13-.44.31-.91.9-.84a3,3,0,0,1,1.91,1.11.55.55,0,0,1,0,.81c-.39.36-1.06-.07-1.39.38A8.1,8.1,0,0,0,103.08,110.59Z"/><path class="cls-1" d="M144.74,130.37c0-.09.1-.2.09-.28-.14-.75.48-1.79-.43-2.19s-1.26.65-1.78,1.13a3.25,3.25,0,0,1-2.36.84c-4.49-.06-8.1-1.71-10.07-5.94-2.52-5.41-3.46-11-1-16.69a20.29,20.29,0,0,1,2.21-3.41,1.82,1.82,0,0,1,.92-1.31c3.82-2.89,8-4.8,12.93-4.35,1.12.1,2.31-.3,3.31.54a1,1,0,0,0,1,.17c1.39-.32,2.57.45,3.76.87a20.45,20.45,0,0,1,9.71,6.93,12.83,12.83,0,0,1,2.49,8.55,14.92,14.92,0,0,0,1.47,7c.65,1.44.47,1.95-.74,2.79-1.37,1.31-1.92-.21-3.07-1.21.33,1.82.27,3.17-1.11,4.09-1.86,1.24-2.19-1.3-3.53-1.32.13.48.24,1,.4,1.44a1.54,1.54,0,0,1-.78,2.15c-.93.48-1.74.52-2.37-.42-.94-1.4-2.13-1.42-3.55-.82-1.85.78-3.75,1.46-5.63,2.19C145.71,131.43,145.08,131.28,144.74,130.37Z"/><path class="cls-2" d="M167.28,116.56c-.28-.31-.59-.58-.35-.93.05-.07.24,0,.36-.07Z"/><path d="M151.59,122.79c-2.74.76-3.67.23-4.31-2.56-.33-1.43-.6-2.87-.82-4.31a4.6,4.6,0,0,1,4.22-5,2.6,2.6,0,0,1,2,.89,13.74,13.74,0,0,1,3.47,5.95,2.86,2.86,0,0,1-.87,3A7.85,7.85,0,0,1,151.59,122.79Z"/><path d="M157.53,113c-.08-.85-.21-1.7-.23-2.55,0-1.12.2-2.13,1.53-2.43s2.55-.18,3.33,1.08a33.47,33.47,0,0,1,1.62,3.07,1.69,1.69,0,0,1-1,2.57,8.85,8.85,0,0,1-1.42.52C159.17,115.82,158.19,115.22,157.53,113Z"/><path d="M158.73,122.55c-.33.09-.6,0-.69-.23a3.26,3.26,0,0,1,.36-2.6c.2-.42.45-.85,1-.69a3,3,0,0,1,1.72,1.39.55.55,0,0,1-.12.81c-.44.29-1-.23-1.43.16A8.1,8.1,0,0,0,158.73,122.55Z"/><path class="cls-1" d="M133.16,99c.06-.08.15-.16.16-.25.06-.76.94-1.6.18-2.23s-1.38.29-2,.61a3.25,3.25,0,0,1-2.5.17c-4.31-1.25-7.35-3.81-8.12-8.42-1-5.88-.41-11.48,3.49-16.35a20.29,20.29,0,0,1,3-2.7,1.82,1.82,0,0,1,1.24-1c4.46-1.77,9-2.49,13.62-.74,1.05.4,2.31.33,3,1.41a1,1,0,0,0,.88.42c1.43.06,2.36,1.12,3.39,1.85a20.45,20.45,0,0,1,7.5,9.28,12.83,12.83,0,0,1,.11,8.9,14.92,14.92,0,0,0-.45,7.13c.24,1.57-.07,2-1.46,2.49-1.67.89-1.79-.71-2.63-2-.16,1.85-.58,3.13-2.17,3.65-2.12.7-1.77-1.83-3-2.21,0,.5,0,1,0,1.49a1.54,1.54,0,0,1-1.32,1.86c-1,.21-1.82,0-2.17-1-.53-1.6-1.67-1.94-3.2-1.74-2,.26-4,.41-6,.61C133.81,100.25,133.24,99.93,133.16,99Z"/><path class="cls-2" d="M158.57,91.68c-.19-.38-.42-.72-.09-1,.07-.05.24,0,.37,0Z"/><path d="M141.79,93.5c-2.84,0-3.6-.76-3.47-3.62.07-1.46.18-2.92.36-4.38a4.6,4.6,0,0,1,5.39-3.65,2.6,2.6,0,0,1,1.7,1.39,13.74,13.74,0,0,1,1.76,6.66,2.86,2.86,0,0,1-1.65,2.68A7.85,7.85,0,0,1,141.79,93.5Z"/><path d="M150.12,85.67c.15-.84.25-1.69.46-2.52.27-1.09.76-2,2.12-1.94s2.51.51,2.92,1.93a33.47,33.47,0,0,1,.74,3.39,1.69,1.69,0,0,1-1.62,2.22,8.85,8.85,0,0,1-1.5.12C151,88.8,150.17,88,150.12,85.67Z"/><path d="M148.73,95.17c-.34,0-.59-.14-.61-.41a3.26,3.26,0,0,1,1-2.41c.31-.35.66-.7,1.16-.39a3,3,0,0,1,1.29,1.8.55.55,0,0,1-.33.74c-.5.16-.93-.5-1.43-.23A8.1,8.1,0,0,0,148.73,95.17Z"/><path class="cls-1" d="M80.72,32.33c.06-.08.16-.16.17-.25.08-.76,1-1.58.23-2.22s-1.39.26-2,.57a3.25,3.25,0,0,1-2.5.12c-4.28-1.35-7.26-4-7.92-8.6-.84-5.9-.14-11.49,3.87-16.27a20.29,20.29,0,0,1,3.1-2.63,1.82,1.82,0,0,1,1.26-1c4.5-1.66,9-2.29,13.64-.42,1,.42,2.3.38,3,1.48a1,1,0,0,0,.87.44c1.42.1,2.33,1.17,3.35,1.92A20.45,20.45,0,0,1,105,14.92a12.83,12.83,0,0,1-.1,8.9,14.92,14.92,0,0,0-.62,7.12c.21,1.57-.11,2-1.51,2.45-1.69.85-1.78-.75-2.59-2-.21,1.84-.65,3.11-2.25,3.6-2.14.65-1.72-1.87-3-2.28,0,.5,0,1,0,1.49A1.54,1.54,0,0,1,93.57,36c-1,.19-1.82,0-2.15-1.09-.49-1.61-1.63-2-3.16-1.81-2,.21-4,.31-6,.47C81.34,33.63,80.78,33.3,80.72,32.33Z"/><path class="cls-2" d="M106.29,25.63c-.18-.38-.4-.73-.06-1,.07-.05.24,0,.36,0Z"/><path d="M89.47,27.06c-2.84-.06-3.58-.85-3.39-3.7.1-1.46.25-2.92.46-4.37A4.6,4.6,0,0,1,92,15.47a2.6,2.6,0,0,1,1.66,1.43,13.74,13.74,0,0,1,1.61,6.7,2.86,2.86,0,0,1-1.71,2.65A7.85,7.85,0,0,1,89.47,27.06Z"/><path d="M98,19.43c.17-.84.29-1.69.52-2.51.3-1.08.81-2,2.17-1.89s2.49.57,2.88,2a33.47,33.47,0,0,1,.66,3.41,1.69,1.69,0,0,1-1.67,2.18,8.85,8.85,0,0,1-1.51.08C98.74,22.58,98,21.72,98,19.43Z"/><path d="M96.37,28.9c-.34,0-.58-.15-.6-.42a3.26,3.26,0,0,1,1.1-2.39c.31-.34.67-.68,1.17-.37a3,3,0,0,1,1.24,1.83.55.55,0,0,1-.35.74c-.51.15-.92-.52-1.42-.26A8.1,8.1,0,0,0,96.37,28.9Z"/><path class="cls-1" d="M113.76,126.77c.07-.07.19-.12.22-.2.25-.72,1.31-1.32.72-2.11s-1.41-.06-2.11.1a3.25,3.25,0,0,1-2.47-.44c-3.87-2.27-6.19-5.5-5.81-10.15.49-5.94,2.42-11.23,7.39-15a20.29,20.29,0,0,1,3.61-1.87,1.82,1.82,0,0,1,1.45-.68c4.75-.62,9.3-.22,13.39,2.63.93.64,2.16.89,2.61,2.11a1,1,0,0,0,.75.62c1.37.41,2,1.66,2.84,2.62a20.45,20.45,0,0,1,5,10.83,12.83,12.83,0,0,1-2.08,8.66,14.92,14.92,0,0,0-2.19,6.8c-.15,1.58-.56,1.92-2,2.05-1.84.45-1.57-1.13-2.07-2.57-.61,1.75-1.33,2.89-3,3-2.23.16-1.26-2.21-2.41-2.89-.12.48-.27,1-.36,1.45a1.54,1.54,0,0,1-1.74,1.48c-1,0-1.77-.41-1.85-1.54-.12-1.68-1.15-2.29-2.68-2.47-2-.24-4-.59-6-.88C114.07,128.17,113.6,127.72,113.76,126.77Z"/><path class="cls-2" d="M140.18,125.93c-.09-.41-.23-.8.16-1,.08,0,.23.08.35.12Z"/><path d="M123.46,123.58c-2.76-.69-3.3-1.62-2.48-4.36.42-1.4.9-2.79,1.42-4.15a4.6,4.6,0,0,1,6.12-2.22,2.6,2.6,0,0,1,1.3,1.77,13.74,13.74,0,0,1,.07,6.89,2.86,2.86,0,0,1-2.25,2.2A7.85,7.85,0,0,1,123.46,123.58Z"/><path d="M133.46,118c.35-.78.66-1.58,1.07-2.33.53-1,1.23-1.75,2.53-1.36s2.3,1.11,2.36,2.58a33.47,33.47,0,0,1-.12,3.47,1.69,1.69,0,0,1-2.12,1.76,8.85,8.85,0,0,1-1.49-.25C133.5,121.27,132.94,120.27,133.46,118Z"/><path d="M129.78,126.9c-.33-.09-.53-.28-.49-.55a3.26,3.26,0,0,1,1.6-2.09c.38-.26.81-.51,1.22-.1a3,3,0,0,1,.81,2.06.55.55,0,0,1-.5.64c-.53,0-.78-.71-1.33-.57A8.1,8.1,0,0,0,129.78,126.9Z"/><path class="cls-1" d="M115.3,104.5c0-.09-.13-.18-.12-.27,0-.76-.71-1.72.14-2.23s1.33.48,1.91.89a3.25,3.25,0,0,0,2.45.52c4.44-.64,7.81-2.75,9.21-7.2,1.79-5.69,2-11.31-1.18-16.68a20.29,20.29,0,0,0-2.63-3.1A1.82,1.82,0,0,0,124,75.25c-4.17-2.37-8.53-3.72-13.39-2.63-1.1.25-2.33,0-3.21,1a1,1,0,0,1-.92.29c-1.42-.14-2.49.78-3.62,1.35a20.45,20.45,0,0,0-8.72,8.14,12.83,12.83,0,0,0-1.35,8.8,14.92,14.92,0,0,1-.55,7.12c-.46,1.52-.21,2,1.1,2.67,1.53,1.12,1.88-.45,2.88-1.6-.09,1.85.14,3.18,1.64,3.91,2,1,2-1.57,3.32-1.76-.07.49-.12,1-.21,1.48a1.54,1.54,0,0,0,1.05,2c1,.35,1.79.29,2.3-.73.75-1.51,1.93-1.68,3.42-1.28,1.94.53,3.91,1,5.86,1.44C114.48,105.68,115.08,105.44,115.3,104.5Z"/><path class="cls-2" d="M91.15,93.74c.24-.35.51-.66.22-1-.06-.06-.24,0-.37,0Z"/><path d="M107.52,97.88c2.81.4,3.67-.25,3.94-3.1.14-1.46.23-2.92.25-4.38A4.6,4.6,0,0,0,106.89,86,2.6,2.6,0,0,0,105,87.17a13.74,13.74,0,0,0-2.67,6.35,2.86,2.86,0,0,0,1.26,2.89A7.85,7.85,0,0,0,107.52,97.88Z"/><path d="M100.36,89c0-.85,0-1.71-.11-2.56-.12-1.12-.48-2.08-1.83-2.21s-2.55.16-3.16,1.5a33.47,33.47,0,0,0-1.2,3.26,1.69,1.69,0,0,0,1.29,2.43,8.85,8.85,0,0,0,1.47.33C99.09,91.95,100,91.23,100.36,89Z"/><path d="M100.41,98.57c.34,0,.6-.06.66-.32a3.26,3.26,0,0,0-.69-2.54c-.25-.39-.56-.78-1.1-.55a3,3,0,0,0-1.52,1.6.55.55,0,0,0,.22.78c.48.23,1-.37,1.44,0A8.1,8.1,0,0,1,100.41,98.57Z"/><path class="cls-1" d="M94.7,131.33c0-.09.13-.18.12-.27,0-.76.71-1.72-.14-2.23s-1.33.48-1.91.89a3.25,3.25,0,0,1-2.45.52c-4.44-.64-7.81-2.75-9.21-7.2-1.79-5.69-2-11.31,1.18-16.68a20.29,20.29,0,0,1,2.63-3.1A1.82,1.82,0,0,1,86,102.09c4.17-2.37,8.53-3.72,13.39-2.63,1.1.25,2.33,0,3.21,1a1,1,0,0,0,.92.29c1.42-.14,2.49.78,3.62,1.35a20.45,20.45,0,0,1,8.72,8.14,12.83,12.83,0,0,1,1.35,8.8,14.92,14.92,0,0,0,.55,7.12c.46,1.52.21,2-1.1,2.67-1.53,1.12-1.88-.45-2.88-1.6.09,1.85-.14,3.18-1.64,3.91-2,1-2-1.57-3.32-1.76.07.49.12,1,.21,1.48a1.54,1.54,0,0,1-1.05,2c-1,.35-1.79.29-2.3-.73-.75-1.51-1.93-1.68-3.42-1.28-1.94.53-3.91,1-5.86,1.44C95.52,132.51,94.92,132.27,94.7,131.33Z"/><path class="cls-2" d="M118.85,120.57c-.24-.35-.51-.66-.22-1,.06-.06.24,0,.37,0Z"/><path d="M102.48,124.71c-2.81.4-3.67-.25-3.94-3.1-.14-1.46-.23-2.92-.25-4.38a4.6,4.6,0,0,1,4.83-4.37A2.6,2.6,0,0,1,105,114a13.74,13.74,0,0,1,2.67,6.35,2.86,2.86,0,0,1-1.26,2.89A7.85,7.85,0,0,1,102.48,124.71Z"/><path d="M109.64,115.8c0-.85,0-1.71.11-2.56.12-1.12.48-2.08,1.83-2.21s2.55.16,3.16,1.5a33.47,33.47,0,0,1,1.2,3.26,1.69,1.69,0,0,1-1.29,2.43,8.85,8.85,0,0,1-1.47.33C110.91,118.78,110,118.06,109.64,115.8Z"/><path d="M109.59,125.4c-.34,0-.6-.06-.66-.32a3.26,3.26,0,0,1,.69-2.54c.25-.39.56-.78,1.1-.55a3,3,0,0,1,1.52,1.6.55.55,0,0,1-.22.78c-.48.23-1-.37-1.44,0A8.1,8.1,0,0,0,109.59,125.4Z"/><path class="cls-1" d="M64.74,126.12c.07-.07.19-.12.22-.2.25-.72,1.31-1.32.72-2.11s-1.41-.06-2.11.1a3.25,3.25,0,0,1-2.47-.44c-3.87-2.27-6.19-5.5-5.81-10.15.49-5.94,2.42-11.23,7.39-15a20.29,20.29,0,0,1,3.61-1.87,1.82,1.82,0,0,1,1.45-.68c4.75-.62,9.3-.22,13.39,2.63.93.64,2.16.89,2.61,2.11a1,1,0,0,0,.75.62c1.37.41,2,1.66,2.84,2.62a20.45,20.45,0,0,1,5,10.83,12.83,12.83,0,0,1-2.08,8.66,14.92,14.92,0,0,0-2.19,6.8c-.15,1.58-.56,1.92-2,2.05-1.84.45-1.57-1.13-2.07-2.57-.61,1.75-1.33,2.89-3,3-2.23.16-1.26-2.21-2.41-2.89-.12.48-.27,1-.36,1.45a1.54,1.54,0,0,1-1.74,1.48c-1,0-1.77-.41-1.85-1.54-.12-1.68-1.15-2.29-2.68-2.47-2-.24-4-.59-6-.88C65.05,127.52,64.58,127.08,64.74,126.12Z"/><path class="cls-2" d="M91.16,125.29c-.09-.41-.23-.8.16-1,.08,0,.23.08.35.12Z"/><path d="M74.44,122.93c-2.76-.69-3.3-1.62-2.48-4.36.42-1.4.9-2.79,1.42-4.15a4.6,4.6,0,0,1,6.12-2.22,2.6,2.6,0,0,1,1.3,1.77,13.74,13.74,0,0,1,.07,6.89,2.86,2.86,0,0,1-2.25,2.2A7.85,7.85,0,0,1,74.44,122.93Z"/><path d="M84.44,117.39c.35-.78.66-1.58,1.07-2.33.53-1,1.23-1.75,2.53-1.36s2.3,1.11,2.36,2.58a33.47,33.47,0,0,1-.12,3.47,1.69,1.69,0,0,1-2.12,1.76,8.85,8.85,0,0,1-1.49-.25C84.48,120.63,83.93,119.62,84.44,117.39Z"/><path d="M80.76,126.26c-.33-.09-.53-.28-.49-.55a3.26,3.26,0,0,1,1.6-2.09c.38-.26.81-.51,1.22-.1a3,3,0,0,1,.81,2.06.55.55,0,0,1-.5.64c-.53,0-.78-.71-1.33-.57A8.1,8.1,0,0,0,80.76,126.26Z"/><path class="cls-1" d="M92,77.94c.07-.07.19-.12.22-.2.25-.72,1.31-1.32.72-2.11s-1.41-.06-2.11.1a3.25,3.25,0,0,1-2.47-.44c-3.87-2.27-6.19-5.5-5.81-10.15.49-5.94,2.42-11.23,7.39-15a20.29,20.29,0,0,1,3.61-1.87A1.82,1.82,0,0,1,95,47.57c4.75-.62,9.3-.22,13.39,2.63.93.64,2.16.89,2.61,2.11a1,1,0,0,0,.75.62c1.37.41,2,1.66,2.84,2.62a20.45,20.45,0,0,1,5,10.83A12.83,12.83,0,0,1,117.53,75a14.92,14.92,0,0,0-2.19,6.8c-.15,1.58-.56,1.92-2,2.05-1.84.45-1.57-1.13-2.07-2.57-.61,1.75-1.33,2.89-3,3-2.23.16-1.26-2.21-2.41-2.89-.12.48-.27,1-.36,1.45a1.54,1.54,0,0,1-1.74,1.48c-1,0-1.77-.41-1.85-1.54-.12-1.68-1.15-2.29-2.68-2.47-2-.24-4-.59-6-.88C92.35,79.34,91.88,78.89,92,77.94Z"/><path class="cls-2" d="M118.45,77.1c-.09-.41-.23-.8.16-1,.08,0,.23.08.35.12Z"/><path d="M101.74,74.75c-2.76-.69-3.3-1.62-2.48-4.36.42-1.4.9-2.79,1.42-4.15A4.6,4.6,0,0,1,106.8,64a2.6,2.6,0,0,1,1.3,1.77,13.74,13.74,0,0,1,.07,6.89,2.86,2.86,0,0,1-2.25,2.2A7.85,7.85,0,0,1,101.74,74.75Z"/><path d="M111.74,69.21c.35-.78.66-1.58,1.07-2.33.53-1,1.23-1.75,2.53-1.36s2.3,1.11,2.36,2.58a33.47,33.47,0,0,1-.12,3.47,1.69,1.69,0,0,1-2.12,1.76,8.85,8.85,0,0,1-1.49-.25C111.78,72.44,111.22,71.44,111.74,69.21Z"/><path d="M108.06,78.07c-.33-.09-.53-.28-.49-.55a3.26,3.26,0,0,1,1.6-2.09c.38-.26.81-.51,1.22-.1a3,3,0,0,1,.81,2.06.55.55,0,0,1-.5.64c-.53,0-.78-.71-1.33-.57A8.1,8.1,0,0,0,108.06,78.07Z"/><path class="cls-1" d="M75.11,57c0-.09.13-.18.12-.27,0-.76.71-1.72-.14-2.23s-1.33.48-1.91.89a3.25,3.25,0,0,1-2.45.52c-4.44-.64-7.81-2.75-9.21-7.2C59.73,43,59.52,37.35,62.7,32a20.29,20.29,0,0,1,2.63-3.1,1.82,1.82,0,0,1,1.08-1.18c4.17-2.37,8.53-3.72,13.39-2.63,1.1.25,2.33,0,3.21,1a1,1,0,0,0,.92.29c1.42-.14,2.49.78,3.62,1.35a20.45,20.45,0,0,1,8.72,8.14,12.83,12.83,0,0,1,1.35,8.8,14.92,14.92,0,0,0,.55,7.12c.46,1.52.21,2-1.1,2.67-1.53,1.12-1.88-.45-2.88-1.6.09,1.85-.14,3.18-1.64,3.91-2,1-2-1.57-3.32-1.76.07.49.12,1,.21,1.48a1.54,1.54,0,0,1-1.05,2c-1,.35-1.79.29-2.3-.73-.75-1.51-1.93-1.68-3.42-1.28-1.94.53-3.91,1-5.86,1.44C75.94,58.13,75.33,57.9,75.11,57Z"/><path class="cls-2" d="M99.26,46.2c-.24-.35-.51-.66-.22-1,.06-.06.24,0,.37,0Z"/><path d="M82.89,50.33c-2.81.4-3.67-.25-3.94-3.1-.14-1.46-.23-2.92-.25-4.38a4.6,4.6,0,0,1,4.83-4.37,2.6,2.6,0,0,1,1.87,1.14A13.74,13.74,0,0,1,88.07,46a2.86,2.86,0,0,1-1.26,2.89A7.85,7.85,0,0,1,82.89,50.33Z"/><path d="M90.05,41.42c0-.85,0-1.71.11-2.56.12-1.12.48-2.08,1.83-2.21s2.55.16,3.16,1.5a33.47,33.47,0,0,1,1.2,3.26,1.69,1.69,0,0,1-1.29,2.43,8.85,8.85,0,0,1-1.47.33C91.32,44.4,90.42,43.68,90.05,41.42Z"/><path d="M90,51c-.34,0-.6-.06-.66-.32A3.26,3.26,0,0,1,90,48.17c.25-.39.56-.78,1.1-.55a3,3,0,0,1,1.52,1.6.55.55,0,0,1-.22.78c-.48.23-1-.37-1.44,0A8.1,8.1,0,0,0,90,51Z"/><path class="cls-1" d="M47.31,131.8c0-.1.07-.21,0-.29-.26-.72.2-1.85-.76-2.1s-1.14.83-1.58,1.39A3.25,3.25,0,0,1,42.8,132c-4.44.64-8.27-.43-10.87-4.31-3.32-5-5.12-10.29-3.58-16.33A20.29,20.29,0,0,1,30,107.64a1.82,1.82,0,0,1,.7-1.44c3.33-3.45,7.13-6,12.1-6.3,1.13-.07,2.24-.65,3.35,0a1,1,0,0,0,1,0c1.32-.53,2.61,0,3.85.28a20.45,20.45,0,0,1,10.67,5.35,12.83,12.83,0,0,1,3.78,8.06A14.92,14.92,0,0,0,68,120.3c.87,1.33.77,1.85-.3,2.87-1.16,1.5-1.93.09-3.22-.72.61,1.75.76,3.09-.47,4.22-1.64,1.51-2.37-.94-3.69-.75.21.45.39.92.62,1.36a1.54,1.54,0,0,1-.44,2.24c-.84.62-1.64.78-2.41-.05-1.14-1.23-2.32-1.07-3.64-.26-1.71,1.06-3.48,2-5.22,3A1.2,1.2,0,0,1,47.31,131.8Z"/><path class="cls-2" d="M67.44,114.66c-.33-.27-.68-.48-.48-.86,0-.08.23-.08.35-.12Z"/><path d="M52.9,123.25c-2.59,1.18-3.59.79-4.66-1.86q-.82-2-1.48-4.13a4.6,4.6,0,0,1,3.4-5.55,2.6,2.6,0,0,1,2.12.57,13.74,13.74,0,0,1,4.35,5.34,2.86,2.86,0,0,1-.39,3.12A7.85,7.85,0,0,1,52.9,123.25Z"/><path d="M57.26,112.68c-.21-.83-.47-1.65-.62-2.48-.2-1.1-.13-2.13,1.13-2.64s2.49-.57,3.46.55a33.47,33.47,0,0,1,2.07,2.78,1.69,1.69,0,0,1-.56,2.69,8.85,8.85,0,0,1-1.32.73C59.31,115.19,58.25,114.75,57.26,112.68Z"/><path d="M59.92,121.91c-.31.14-.59.11-.72-.12a3.26,3.26,0,0,1-.05-2.63c.13-.44.31-.91.9-.84A3,3,0,0,1,62,119.42a.55.55,0,0,1,0,.81c-.39.36-1.06-.07-1.39.38A8.1,8.1,0,0,0,59.92,121.91Z"/><path class="cls-1" d="M74.8,103.47c.06-.08.15-.16.16-.25.06-.76.94-1.6.18-2.23s-1.38.29-2,.61a3.25,3.25,0,0,1-2.5.17c-4.31-1.25-7.35-3.81-8.12-8.42-1-5.88-.41-11.48,3.49-16.35a20.29,20.29,0,0,1,3-2.7,1.82,1.82,0,0,1,1.24-1c4.46-1.77,9-2.49,13.62-.74,1.05.4,2.31.33,3,1.41a1,1,0,0,0,.88.42c1.43.06,2.36,1.12,3.39,1.85a20.45,20.45,0,0,1,7.5,9.28,12.83,12.83,0,0,1,.11,8.9,14.92,14.92,0,0,0-.45,7.13c.24,1.57-.07,2-1.46,2.49-1.67.89-1.79-.71-2.63-2-.16,1.85-.58,3.13-2.17,3.65-2.12.7-1.77-1.83-3-2.21,0,.5,0,1,0,1.49a1.54,1.54,0,0,1-1.32,1.86c-1,.21-1.82,0-2.17-1-.53-1.6-1.67-1.94-3.2-1.74-2,.26-4,.41-6,.61C75.45,104.75,74.88,104.43,74.8,103.47Z"/><path class="cls-2" d="M100.21,96.18c-.19-.38-.42-.72-.09-1,.07-.05.24,0,.37,0Z"/><path d="M83.43,98c-2.84,0-3.6-.76-3.47-3.62.07-1.46.18-2.92.36-4.38a4.6,4.6,0,0,1,5.39-3.65,2.6,2.6,0,0,1,1.7,1.39,13.74,13.74,0,0,1,1.76,6.66,2.86,2.86,0,0,1-1.65,2.68A7.85,7.85,0,0,1,83.43,98Z"/><path d="M91.76,90.17c.15-.84.25-1.69.46-2.52.27-1.09.76-2,2.12-1.94s2.51.51,2.92,1.93A33.47,33.47,0,0,1,98,91a1.69,1.69,0,0,1-1.62,2.22,8.85,8.85,0,0,1-1.5.12C92.6,93.3,91.81,92.46,91.76,90.17Z"/><path d="M90.37,99.67c-.34,0-.59-.14-.61-.41a3.26,3.26,0,0,1,1-2.41c.31-.35.66-.7,1.16-.39a3,3,0,0,1,1.29,1.8.55.55,0,0,1-.33.74c-.5.16-.93-.5-1.43-.23A8.1,8.1,0,0,0,90.37,99.67Z"/><path class="cls-1" d="M51.87,103.09c0-.09.13-.18.12-.27,0-.76.71-1.72-.14-2.23s-1.33.48-1.91.89a3.25,3.25,0,0,1-2.45.52c-4.44-.64-7.81-2.75-9.21-7.2-1.79-5.69-2-11.31,1.18-16.68A20.29,20.29,0,0,1,42.08,75a1.82,1.82,0,0,1,1.08-1.18c4.17-2.37,8.53-3.72,13.39-2.63,1.1.25,2.33,0,3.21,1a1,1,0,0,0,.92.29c1.42-.14,2.49.78,3.62,1.35A20.45,20.45,0,0,1,73,82a12.83,12.83,0,0,1,1.35,8.8,14.92,14.92,0,0,0,.55,7.12c.46,1.52.21,2-1.1,2.67-1.53,1.12-1.88-.45-2.88-1.6.09,1.85-.14,3.18-1.64,3.91-2,1-2-1.57-3.32-1.76.07.49.12,1,.21,1.48a1.54,1.54,0,0,1-1.05,2c-1,.35-1.79.29-2.3-.73-.75-1.51-1.93-1.68-3.42-1.28-1.94.53-3.91,1-5.86,1.44C52.69,104.26,52.08,104,51.87,103.09Z"/><path class="cls-2" d="M76,92.33c-.24-.35-.51-.66-.22-1,.06-.06.24,0,.37,0Z"/><path d="M59.65,96.46c-2.81.4-3.67-.25-3.94-3.1-.14-1.46-.23-2.92-.25-4.38a4.6,4.6,0,0,1,4.83-4.37,2.6,2.6,0,0,1,1.87,1.14,13.74,13.74,0,0,1,2.67,6.35A2.86,2.86,0,0,1,63.57,95,7.85,7.85,0,0,1,59.65,96.46Z"/><path d="M66.81,87.55c0-.85,0-1.71.11-2.56.12-1.12.48-2.08,1.83-2.21s2.55.16,3.16,1.5a33.47,33.47,0,0,1,1.2,3.26A1.69,1.69,0,0,1,71.82,90a8.85,8.85,0,0,1-1.47.33C68.07,90.53,67.18,89.81,66.81,87.55Z"/><path d="M66.75,97.15c-.34,0-.6-.06-.66-.32a3.26,3.26,0,0,1,.69-2.54c.25-.39.56-.78,1.1-.55a3,3,0,0,1,1.52,1.6.55.55,0,0,1-.22.78c-.48.23-1-.37-1.44,0A8.1,8.1,0,0,0,66.75,97.15Z"/><path class="cls-1" d="M66.9,80c0-.1-.07-.21,0-.29.26-.72-.2-1.85.76-2.1s1.14.83,1.58,1.39a3.25,3.25,0,0,0,2.2,1.19c4.44.64,8.27-.43,10.87-4.31,3.32-5,5.12-10.29,3.58-16.33a20.29,20.29,0,0,0-1.65-3.72,1.82,1.82,0,0,0-.7-1.44c-3.33-3.45-7.13-6-12.1-6.3-1.13-.07-2.24-.65-3.35,0a1,1,0,0,1-1,0c-1.32-.53-2.61,0-3.85.28a20.45,20.45,0,0,0-10.67,5.35,12.83,12.83,0,0,0-3.78,8.06,14.92,14.92,0,0,1-2.53,6.68c-.87,1.33-.77,1.85.3,2.87,1.16,1.5,1.93.09,3.22-.72-.61,1.75-.76,3.09.47,4.22,1.64,1.51,2.37-.94,3.69-.75-.21.45-.39.92-.62,1.36a1.54,1.54,0,0,0,.44,2.24c.84.62,1.64.78,2.41-.05,1.14-1.23,2.32-1.07,3.64-.26,1.71,1.06,3.48,2,5.22,3A1.2,1.2,0,0,0,66.9,80Z"/><path class="cls-2" d="M46.77,62.84c.33-.27.68-.48.48-.86,0-.08-.23-.08-.35-.12Z"/><path d="M61.31,71.43c2.59,1.18,3.59.79,4.66-1.86q.82-2,1.48-4.13A4.6,4.6,0,0,0,64,59.88a2.6,2.6,0,0,0-2.12.57,13.74,13.74,0,0,0-4.35,5.34A2.86,2.86,0,0,0,58,68.91,7.85,7.85,0,0,0,61.31,71.43Z"/><path d="M56.95,60.86c.21-.83.47-1.65.62-2.48.2-1.1.13-2.13-1.13-2.64s-2.49-.57-3.46.55a33.47,33.47,0,0,0-2.07,2.78,1.69,1.69,0,0,0,.56,2.69,8.85,8.85,0,0,0,1.32.73C54.9,63.36,56,62.93,56.95,60.86Z"/><path d="M54.29,70.09c.31.14.59.11.72-.12a3.26,3.26,0,0,0,.05-2.63c-.13-.44-.31-.91-.9-.84a3,3,0,0,0-1.91,1.11.55.55,0,0,0,0,.81c.39.36,1.06-.07,1.39.38A8.1,8.1,0,0,1,54.29,70.09Z"/></g></g></svg>