<?xml version="1.0" encoding="utf-8"?>
<!-- Generator: Adobe Illustrator 21.0.0, SVG Export Plug-In . SVG Version: 6.00 Build 0)  -->
<svg version="1.1" xmlns="http://www.w3.org/2000/svg" xmlns:xlink="http://www.w3.org/1999/xlink" x="0px" y="0px"
	 viewBox="0 0 300 300" style="enable-background:new 0 0 300 300;" xml:space="preserve">
<style type="text/css">
	.st0{fill:#FFFFFF;}
</style>
<g id="Layer_1">
	<g>
		<path d="M25,272.3c0-7.6,0-15.2,0-22.8c0.1,0,0.1-0.1,0.2-0.1c2.9,0,5.9,0,8.8,0.1c5.2,0.3,8.6,3.4,9.5,8.6
			c0.5,2.9,0.3,5.7-0.9,8.4c-1.4,3-3.8,4.8-7.1,5.4c-2.9,0.5-5.8,0.3-8.8,0.4C26.1,272.3,25.6,272.3,25,272.3z M27.7,252
			c0,5.9,0,11.8,0,17.8c0.3,0,0.5,0,0.7,0c1.8-0.1,3.7-0.1,5.5-0.2c3.1-0.1,5.3-1.8,6.3-4.7c0.9-2.5,0.9-5.1,0.1-7.7
			c-0.7-2.1-2-3.8-4.2-4.6c-1.1-0.4-2.3-0.5-3.4-0.6C31,251.9,29.4,252,27.7,252z"/>
		<path d="M234.8,266.5c0-5.7,0-11.4,0-17.1c0.9,0,1.7,0,2.5,0c0,7.8,0,15.7,0,23.6c-5.6-6-11-11.9-16.5-17.8c0,0-0.1,0-0.1,0
			c0,5.6,0,11.3,0,16.9c-0.9,0-1.7,0-2.6,0c0-7.8,0-15.7,0-23.7c5.6,6.1,11.1,12.1,16.6,18.1C234.7,266.6,234.7,266.6,234.8,266.5z"
			/>
		<path d="M82.6,249.4c0,0.8,0,1.6,0,2.4c-3.1,0-6.2,0-9.3,0c0,0.2,0,0.4,0,0.6c0,1.8,0,3.7,0,5.5c0,0.5,0.2,0.5,0.6,0.5
			c2.7,0,5.3,0,8,0c0.2,0,0.5,0,0.8,0c0,0.8,0,1.5,0,2.2c0,0.1-0.4,0.3-0.5,0.3c-2.7,0-5.3,0-8,0c-0.2,0-0.5,0-0.8,0
			c0,0.3,0,0.4,0,0.6c0,2.5,0,5,0,7.5c0,0.5,0.1,0.6,0.6,0.6c2.7,0,5.4,0,8.1,0c0.2,0,0.4,0,0.7,0c0,0.9,0,1.6,0,2.5c-4,0-8,0-12,0
			c0-7.6,0-15.2,0-22.8C74.6,249.4,78.6,249.4,82.6,249.4z"/>
		<path d="M108.2,267.6c0.8-0.4,1.6-0.8,2.4-1.2c0.2,0.5,0.4,1,0.6,1.5c0.9,1.9,2.4,2.8,4.4,2.7c2-0.2,3.5-1.3,4-3
			c0.5-1.9-0.1-3.9-2-5c-1.3-0.8-2.8-1.3-4.2-2c-1-0.5-2.1-1.1-2.9-1.8c-1.8-1.7-2.2-3.9-1.4-6.1c0.8-2.2,2.6-3.2,4.8-3.6
			c1.2-0.2,2.4-0.1,3.6,0.2c1.6,0.4,2.9,1.6,3.6,3.1c-0.7,0.5-1.4,0.9-2.1,1.4c-0.5-0.5-0.9-1.1-1.3-1.5c-1.2-1.2-3.2-1.4-4.6-0.5
			c-2,1.3-2.1,4.3,0.1,5.6c1.4,0.9,2.9,1.5,4.4,2.2c1.3,0.6,2.4,1.2,3.4,2.3c2.6,2.8,2.1,9.6-3.7,10.9c-2.1,0.5-4.2,0.4-6.2-0.8
			C109.6,270.8,108.7,269.4,108.2,267.6z"/>
		<path d="M280.7,249.4c-0.7,1.1-1.4,2.2-2,3.2c-1.8,2.9-3.6,5.9-5.5,8.8c-0.2,0.3-0.2,0.6-0.2,0.9c0,3.2,0,6.4,0,9.5
			c0,0.1,0,0.2,0,0.4c-0.9,0-1.7,0-2.6,0c0-0.2,0-0.4,0-0.6c0-3,0-6.1,0-9.1c0-0.4-0.1-0.9-0.4-1.2c-2.3-3.8-4.7-7.5-7-11.3
			c-0.1-0.2-0.2-0.3-0.3-0.6c1,0,2,0,2.9,0c0.2,0,0.3,0.3,0.5,0.4c1.8,2.9,3.5,5.9,5.3,8.8c0.1,0.2,0.2,0.3,0.4,0.6
			c0.2-0.4,0.4-0.7,0.6-1c1.7-2.8,3.4-5.6,5.1-8.5c0.2-0.3,0.4-0.5,0.8-0.5C279,249.4,279.8,249.4,280.7,249.4z"/>
		<path d="M155.4,251.9c0,6.8,0,13.6,0,20.3c-0.9,0-1.8,0-2.7,0c0-0.2,0-0.4,0-0.6c0-6.3,0-12.7,0-19c0-0.5-0.1-0.7-0.7-0.7
			c-1.9,0-3.8,0-5.7,0c0-0.9,0-1.7,0-2.5c5.2,0,10.3,0,15.6,0c0,0.8,0,1.6,0,2.5C159.7,251.9,157.6,251.9,155.4,251.9z"/>
		<path d="M190,272.3c-0.9,0-1.7,0-2.6,0c0-7.6,0-15.2,0-22.8c0.8,0,1.7,0,2.6,0C190,257,190,264.6,190,272.3z"/>
	</g>
</g>
<g id="Layer_3">
	<path d="M103.2,45.8c-4.3,2.5-8.7,4.9-13,7.4c-0.1,0.1-0.1,0.3-0.1,0.5l0.1,0c-0.8-0.4-1.7-0.5-2.4-1.1c-2.8-2.3-5.6-4.8-8.4-7.2
		c-3.1-2.7-6.3-5.4-9.4-8.1c-0.1,0.1-0.2,0.2-0.3,0.3c5.1,6.1,10.1,12.1,15.3,18.3c-7.6,4.4-14.8,8.6-22.1,12.7
		c-1.4,0.8-2,1.6-2,3.3c0.1,35.1,0.1,70.3,0,105.4c0,1.4,0.4,2.2,1.7,3c4,2.2,7.9,4.6,11.9,6.9c3.3,1.9,6.7,3.6,10.1,5.3
		c-1.9,2.5-3.8,5-5.8,7.4c-3.1,3.8-6.4,7.5-9.5,11.3c0.7,0,1.1-0.3,1.4-0.6c5.2-4.5,10.4-9.1,15.7-13.5c0.9-0.7,2.1-1.1,3.2-1.6
		c0.6,0.5,1.2,1.1,1.9,1.5c8.3,4.8,16.6,9.6,24.9,14.4c10.5,6.1,21.1,12.2,31.7,18.2c2.2,1.2,3.9,2.5,4.8,5c0.4,1.2,1.5,2.2,2.3,3.4
		c3.1-2.3,3-6.5,6.3-7.9c1-0.5,2-1,3-1.5c18.7-10.8,37.4-21.6,56.1-32.4c1.5-0.9,2.4-0.9,3.7,0.3c2.8,2.6,5.8,5.1,8.7,7.6
		c2.6,2.2,5.2,4.4,7.8,6.6c-2.3-3.5-4.9-6.6-7.5-9.8c-2.3-2.8-4.5-5.6-6.7-8.4c1.1-0.5,2.3-0.9,3.4-1.6c5.9-3.4,11.8-6.9,17.8-10.2
		c1.8-1,2.5-2.1,2.5-4.3c-0.1-34.1-0.1-68.1,0-102.2c0-3.4-0.9-5.5-4.1-6.6c-0.3-0.1-0.6-0.2-0.9-0.3c-3.2-1.8-6.4-3.7-9.6-5.5
		c-3.1-1.9-6.2-3.8-9.4-5.8c4.9-5.9,9.7-11.6,14.5-17.3c-0.2-0.1-0.3-0.3-0.5-0.4c-2,1.7-4,3.5-6.1,5.2c-4.2,3.5-8.5,7-12.7,10.5
		c-2.8-1.7-5.6-3.5-8.4-5.2c-0.4-0.3-0.8-0.6-1.2-0.9c-12.2-7-24.3-14.1-36.5-21.1c-3.7-2.1-7.4-4-11.1-6c-0.8-1-2.3-1.9-2.4-3
		c-0.2-1.9-0.3-3.2-2.6-3.3c-0.4,0-1-0.3-1.3-0.7c-1.7-2.4-3-2-5.1-0.1c-1.7,1.5-4.7,1.7-3.9,5.1c0.1,0.3-0.6,0.7-0.9,1.1
		c0,0,0.1-0.1,0.1-0.1c-3.2,1.9-6.4,3.7-9.6,5.6c0,0,0.1-0.1,0.1-0.1c-0.6,0.2-1.3,0.3-1.8,0.6c-9.3,5.3-18.5,10.7-27.7,16.1
		C107.1,43.1,105.1,44.6,103.2,45.8C103.1,45.9,103.2,45.8,103.2,45.8z"/>
	<path d="M148.3,19.8c0.3-0.4,1-0.8,0.9-1.1c-0.8-3.4,2.2-3.6,3.9-5.1c2.1-1.9,3.4-2.2,5.1,0.1c0.3,0.4,0.8,0.7,1.3,0.7
		c2.3,0.1,2.4,1.4,2.6,3.3c0.1,1.1,1.5,2,2.4,3c0,0,0,0,0,0c-0.7-0.3-1.5-0.5-1.8-0.6c-0.8,1.6-1.5,3-2.2,4.4c-0.3,0.7-1,1.3-1,2
		c0.1,6.7,0.4,13.3,0.6,20c0.2,4.5,0.2,4.5,4.8,4.5c1.3,0,2.7,0,4,0c0.5,0,1.2,0,1.4-0.3c1.6-3,4.1-1,6.3-1.6c0,3.6,0,6.8,0,10.5
		c-2-0.3-4.3,0.1-5.5-0.9c-1.1-0.9-2-1.2-3.2-1.2c-5.5,0-5.1-0.5-5.1,4.9c0,4.8,0,9.7,0,14.4c-4.8,0-9.3,0-14,0c0-0.7,0-1.5,0-2.4
		c0-4.8,0-9.5,0-14.3c0-0.7-0.4-2.1-0.7-2.1c-2.3-0.2-5.6-1.1-6.7,0c-2.2,2.3-4.3,0.9-6.4,1.4c0-3.6,0-6.9,0-10.3
		c2.3,0.4,4.8-1.2,6.4,1.7c0.1,0.3,0.9,0.2,1.4,0.2c2,0,4-0.1,6,0c1.5,0.1,2.1-0.6,2.3-2c0.3-2.4,0.8-4.8,0.9-7.1
		c0.1-5.3,0.1-10.5,0-15.8c0-0.5-0.8-1-1.2-1.6c-1.2-1-1.5-2.3-1.4-3.8C149.3,20.4,148.6,20.1,148.3,19.8z"/>
	<path d="M161.5,230.1c-3.4,1.4-3.3,5.6-6.3,7.9c-0.8-1.2-1.9-2.2-2.3-3.4c-0.8-2.5-2.6-3.7-4.8-5c-10.6-6-21.1-12.1-31.7-18.2
		c-8.3-4.8-16.6-9.6-24.9-14.4c-0.7-0.4-1.3-1-1.9-1.5l-0.1,0.1c1.1,0.4,2.2,0.7,3.2,1.3c13.8,7.9,27.5,15.9,41.2,23.8
		c5.7,3.3,11.4,6.6,17,9.9c0.1-4.1-1.6-6.5-5.3-8.6c-16.6-9.3-33.1-18.9-49.5-28.5c-0.9-0.5-1.7-1.3-2.5-2l-0.1,0.1
		c1.3,0.6,2.6,1.1,3.8,1.8c12.8,7.4,25.6,14.8,38.4,22.2c4.6,2.7,9.2,5.3,13.9,8c-0.3-4.7-0.8-9.2-0.8-13.7c-0.1-8.4,0-16.9,0-25.3
		c0-4,0.2-4.3,4.1-5.1c0.7-0.2,1.5-0.2,2.2-0.3c5.3-0.1,6.9,1.4,6.9,6.6c0,0.4,0,0.8,0,1.3c-0.4,11.8-0.8,23.5-1.1,35.3
		c0,0.6,0.3,1.2,0.5,1.8c-0.7,2.1-1.4,4.2-2.3,6.5C160.3,230.4,160.9,230.3,161.5,230.1z"/>
	<path d="M226.6,192.5c2.2,2.8,4.4,5.6,6.7,8.4c2.6,3.2,5.3,6.2,7.5,9.8c-2.6-2.2-5.2-4.4-7.8-6.6c-2.9-2.5-5.9-5-8.7-7.6
		c-1.3-1.2-2.2-1.1-3.7-0.3c-18.7,10.9-37.4,21.6-56.1,32.4c0.6-0.6,1.1-1.4,1.9-1.8c17.2-10,34.5-20,51.8-29.9
		c1.2-0.7,2.4-1.4,4.1-2.4c-1.8-1.2-3.3-2.1-4.7-3c-0.6-0.7-1.1-1.6-1.8-2.2c-2.3-2-4.6-4-7.1-6.1c1.6-2.1,3.1-4,4.6-5.9
		c3.3,3.8,6.4,7.4,9.4,10.9c6.8-4,13.4-7.7,19.8-11.6c0.8-0.5,1.7-1.7,1.7-2.6c0.1-33,0.1-66,0-98.9c0-0.8-0.6-2-1.2-2.4
		c-6.7-4-13.6-7.9-20.5-12c-5.4,6.4-10.7,12.7-15.7,18.7c-3.3-1.4-6.3-2.7-9.6-4c6.9-6,13.6-11.7,20.3-17.5
		c-0.6-0.4-0.8-0.6-1.1-0.7c-17.7-10.2-35.4-20.4-53-30.6c-1-0.6-1.8-1.4-2.6-2.2c1.3,0.7,2.7,1.4,4,2.1
		c17.7,10.2,35.5,20.5,54.1,31.2c0.9-1.1,1.9-2.5,3-3.9c0,0-0.1,0.1-0.1,0.1c4.2-3.5,8.5-7,12.7-10.5c2-1.7,4-3.5,6.1-5.2
		c0.2,0.1,0.3,0.3,0.5,0.4c-4.8,5.7-9.6,11.4-14.5,17.3c3.3,2,6.4,3.9,9.4,5.8c-0.1,0.1-0.2,0.2-0.2,0.3c-3.2-1.8-6.4-3.5-9.8-5.4
		c-0.9,1.1-1.9,2.2-2.9,3.5c6.7,3.9,13.3,7.7,19.9,11.4c1.6,0.9,2.1,1.9,2.1,3.7c-0.1,32.7-0.1,65.4,0,98.1c0,2.1-0.7,3.2-2.5,4.3
		c-6.4,3.5-12.7,7.3-19.9,11.5C224.1,190.5,225.4,191.6,226.6,192.5C226.7,192.6,226.6,192.5,226.6,192.5z"/>
	<path d="M84.6,192.5c-3.4-1.8-6.8-3.5-10.1-5.3c-4-2.2-7.9-4.7-11.9-6.9c-1.3-0.7-1.7-1.6-1.7-3c0-35.1,0-70.3,0-105.4
		c0-1.7,0.6-2.5,2-3.3c7.3-4.1,14.5-8.3,22.1-12.7c-5.2-6.2-10.2-12.2-15.3-18.3c0.1-0.1,0.2-0.2,0.3-0.3c3.1,2.7,6.3,5.4,9.4,8.1
		c2.8,2.4,5.5,4.8,8.4,7.2c0.7,0.5,1.6,0.7,2.4,1.1c1.3,1.2,2.7,2.5,4,3.7c0.5,0.6,0.8,1.4,1.4,1.9c3.3,2.9,6.6,5.7,9.9,8.5
		c2.9,2.5,5.7,5,8.9,7.7c-3.4,1.4-6.3,2.7-9.6,4c-5.1-6-10.4-12.4-15.8-18.8c-7.1,4.1-13.9,8-20.7,12.1c-0.7,0.4-1.2,1.8-1.2,2.7
		c-0.1,32.7,0,65.4-0.1,98.1c0,1.7,0.6,2.5,2,3.3c5.6,3.2,11.2,6.4,16.7,9.7c0.9,0.5,1.6,1.3,2.4,2l0-0.1c-1.3-0.6-2.6-1.2-3.8-1.9
		c-5.2-3-10.4-6.1-15.7-9c-1.7-0.9-2.3-2-2.3-3.9c0.1-32.8,0.1-65.6,0-98.4c0-1.9,0.6-2.8,2.2-3.7c6.6-3.7,13.2-7.6,19.9-11.5
		c-1.1-1.3-2.1-2.5-3.1-3.6c-7.5,4.3-14.8,8.6-22.1,12.8c-1.4,0.8-1.8,1.7-1.8,3.2c0,34.7,0,69.5,0,104.2c0,1.5,0.5,2.4,1.8,3.2
		c6,3.4,12,6.9,18,10.4C82.4,191,83.4,191.8,84.6,192.5L84.6,192.5z"/>
	<path d="M217.6,191.6c1.4,0.9,2.9,1.8,4.7,3c-1.7,1-2.9,1.7-4.1,2.4c-17.3,10-34.5,19.9-51.8,29.9c-0.7,0.4-1.3,1.2-1.9,1.8
		c-1,0.5-2,1-3,1.5c-0.6,0.1-1.2,0.3-2.4,0.6c0.8-2.4,1.5-4.5,2.3-6.5c0,0-0.1,0-0.1,0c1-0.5,2-0.9,2.9-1.4
		c16.8-9.7,33.5-19.3,50.3-29C215.6,193.2,216.6,192.3,217.6,191.6L217.6,191.6z"/>
	<path d="M94.1,57.4c-1.3-1.2-2.7-2.5-4-3.7c0,0-0.1,0-0.1,0c4.4-2.6,8.8-5.2,13.1-7.9c0,0-0.1,0.1-0.1,0.1c0.5-0.2,1.1-0.2,1.6-0.5
		c11-6.3,22-12.7,32.9-19c0.5-0.3,0.8-0.7,1.2-1.1c0,0-0.1,0.1-0.1,0.1c3.2-1.9,6.4-3.7,9.6-5.6c0,0-0.1,0.1-0.1,0.1
		c0.4,0.3,1,0.6,1,0.9c-0.1,1.5,0.2,2.8,1.4,3.9c-0.1,0-0.2,0-0.3,0C132,35.1,113.6,45.7,95.2,56.3C94.8,56.6,94.4,57.1,94.1,57.4
		C94,57.5,94.1,57.4,94.1,57.4z"/>
	<path d="M89.6,195.5c-1.1,0.5-2.3,0.8-3.2,1.6c-5.3,4.4-10.5,9-15.7,13.5c-0.4,0.3-0.7,0.6-1.4,0.6c3.2-3.8,6.4-7.5,9.5-11.3
		c2-2.4,3.8-4.9,5.8-7.4c0,0-0.1,0.1-0.1,0.1c1.2-1.4,2.4-2.7,3.6-4.1c0,0,0,0.1,0,0.1c3.3-3.7,6.6-7.3,10.1-11.2
		c1.5,2,3,3.9,4.5,5.9c-0.9,0.8-1.6,1.4-2.4,2.1c-2.2,2.1-4.5,4.2-6.7,6.2c0,0,0.1-0.1,0.1-0.1C92.2,192.9,90.9,194.2,89.6,195.5
		C89.5,195.6,89.6,195.5,89.6,195.5z"/>
	<path class="st0" d="M245.4,67.3c0.3,0.1,0.6,0.2,0.9,0.3c3.2,1.1,4.1,3.2,4.1,6.6c-0.2,34-0.1,68.1,0,102.2c0,2.1-0.7,3.3-2.5,4.3
		c-6,3.3-11.9,6.8-17.8,10.2c-1.1,0.6-2.2,1-3.4,1.6c0,0,0,0,0,0c0.8-0.7,1.6-1.4,2.5-2c5.9-3.5,11.8-7,17.8-10.3
		c1.9-1,2.5-2.2,2.5-4.3c-0.1-33.2-0.1-66.4,0-99.6c0-3.9-0.2-7.2-4.4-8.8C245.2,67.5,245.3,67.4,245.4,67.3z"/>
	<path class="st0" d="M164.4,20.7c3.7,2,7.5,3.9,11.1,6c12.2,7,24.4,14.1,36.5,21.1c0.4,0.2,0.8,0.6,1.2,0.9
		c-0.1,0.1-0.2,0.2-0.2,0.3c-0.7-0.3-1.4-0.6-2-1c-14.1-8.1-28.2-16.3-42.3-24.4C167.2,22.8,165.8,21.7,164.4,20.7
		C164.4,20.8,164.4,20.7,164.4,20.7z"/>
	<path d="M138.8,25.2c-0.4,0.4-0.8,0.8-1.2,1.1c-11,6.4-21.9,12.7-32.9,19c-0.5,0.3-1.1,0.4-1.6,0.5c2.1-1.3,4.1-2.8,6.2-4
		c9.2-5.4,18.5-10.7,27.7-16.1C137.5,25.5,138.2,25.4,138.8,25.2z"/>
	<path class="st0" d="M103.2,45.8c-4.4,2.6-8.8,5.2-13.1,7.9c0-0.2,0-0.4,0.1-0.5C94.5,50.8,98.8,48.3,103.2,45.8z"/>
	<path class="st0" d="M235.8,61.8c3.2,1.8,6.4,3.7,9.6,5.5c-0.1,0.1-0.2,0.2-0.2,0.3c-3.2-1.8-6.4-3.7-9.5-5.5
		C235.7,62,235.8,61.9,235.8,61.8z"/>
	<path class="st0" d="M148.4,19.7c-3.2,1.9-6.4,3.7-9.6,5.6C141.9,23.4,145.2,21.6,148.4,19.7z"/>
	<path class="st0" d="M213.2,48.7c2.8,1.7,5.6,3.5,8.4,5.2c0,0,0.1-0.1,0.1-0.1c-2.9-1.6-5.8-3.2-8.7-4.9
		C213.1,48.9,213.1,48.8,213.2,48.7z"/>
	<path class="st0" d="M93.5,191.6c2.2-2.1,4.5-4.2,6.7-6.2c0.7-0.7,1.5-1.3,2.4-2.1c-1.5-2-3-3.9-4.5-5.9
		c-3.5,3.8-6.8,7.5-10.1,11.2c-0.8-0.7-1.5-1.5-2.4-2c-5.5-3.3-11.1-6.5-16.7-9.7c-1.4-0.8-2-1.6-2-3.3c0.1-32.7,0-65.4,0.1-98.1
		c0-0.9,0.5-2.2,1.2-2.7c6.8-4.1,13.7-8,20.7-12.1c5.4,6.4,10.7,12.8,15.8,18.8c3.3-1.4,6.2-2.6,9.6-4c-3.1-2.7-6-5.2-8.9-7.7
		c-3.3-2.8-6.6-5.6-9.9-8.5c-0.6-0.5-1-1.3-1.4-1.9c0,0-0.1,0.1-0.1,0.1c0.5-0.2,1.1-0.4,1.6-0.7c17.7-10.2,35.5-20.5,53.2-30.8
		c0.6-0.3,1-1,1.5-1.5c0.1,0,0.2,0,0.3,0c0.4,0.5,1.2,1,1.2,1.6c0.1,5.3,0.1,10.5,0,15.8c-0.1,2.4-0.6,4.8-0.9,7.1
		c-0.2,1.4-0.8,2.1-2.3,2c-2-0.1-4,0-6,0c-0.5,0-1.3,0-1.4-0.2c-1.6-2.8-4.1-1.3-6.4-1.7c0,3.5,0,6.7,0,10.3
		c2.2-0.6,4.3,0.9,6.4-1.4c1.1-1.1,4.4-0.2,6.7,0c0.3,0,0.7,1.4,0.7,2.1c0.1,4.8,0,9.5,0,14.3c0,0.8,0,1.6,0,2.4c4.7,0,9.2,0,14,0
		c0-4.7,0-9.5,0-14.4c0-5.4-0.4-4.9,5.1-4.9c1.2,0,2.1,0.3,3.2,1.2c1.2,1,3.5,0.7,5.5,0.9c0-3.7,0-6.9,0-10.5
		c-2.2,0.6-4.7-1.3-6.3,1.6c-0.1,0.3-0.9,0.3-1.4,0.3c-1.3,0-2.7,0-4,0c-4.5,0-4.6,0-4.8-4.5c-0.3-6.7-0.5-13.3-0.6-20
		c0-0.7,0.7-1.3,1-2c0-0.1,0.1-0.1,0.2-0.1c0.9,0.7,1.7,1.6,2.6,2.2c17.7,10.2,35.3,20.4,53,30.6c0.3,0.2,0.5,0.3,1.1,0.7
		c-6.8,5.8-13.4,11.5-20.3,17.5c3.3,1.4,6.2,2.6,9.6,4c5-5.9,10.4-12.3,15.7-18.7c7,4,13.8,7.9,20.5,12c0.7,0.4,1.2,1.6,1.2,2.4
		c0.1,33,0.1,66,0,98.9c0,0.9-0.9,2.1-1.7,2.6c-6.5,3.9-13,7.6-19.8,11.6c-3-3.5-6.1-7.1-9.4-10.9c-1.5,2-3,3.8-4.6,5.9
		c2.4,2.1,4.8,4.1,7.1,6.1c0.7,0.6,1.2,1.5,1.8,2.2c0,0,0.1-0.1,0.1-0.1c-1,0.4-2,0.8-2.9,1.3c-16.9,9.8-33.8,19.5-50.7,29.3
		c-1,0.6-1.8,1.4-2.7,2.1c0,0,0.1,0,0.1,0c-0.2-0.6-0.5-1.2-0.5-1.8c0.4-11.8,0.7-23.5,1.1-35.3c0-0.4,0-0.8,0-1.3
		c0-5.2-1.6-6.7-6.9-6.6c-0.7,0-1.5,0.1-2.2,0.3c-3.9,0.9-4.1,1.1-4.1,5.1c0,8.4-0.1,16.9,0,25.3c0.1,4.5,0.5,9,0.8,13.7
		c-4.7-2.7-9.3-5.4-13.9-8c-12.8-7.4-25.6-14.8-38.4-22.2C96.2,192.6,94.8,192.1,93.5,191.6z M135.3,147.6c-2.7,1.7-2.8,4.4-2.4,7.1
		c0.2,1,1.1,2.5,1.9,2.7c0.9,0.2,2.4-0.7,3-1.5c0.8-1.2,1.1-2.8,1.3-4.2c0.5-3.5,2.4-6,5.3-7.9c5.7-3.8,12-4.2,18.3-2.1
		c5.2,1.8,9.1,5,9.6,11c0.1,1,0.4,2.3,1.1,3c0.7,0.8,2.1,1.8,3,1.6c0.8-0.1,1.8-1.6,1.9-2.6c0.3-2.1,0.1-4.3,0-6.5
		c-0.4-6.4,2.7-10.4,8.3-12.9c2.8-1.2,4.6-1.1,6.1,0.8c1.6,2,1.5,4.1,0.2,6.3c-0.7,1.1-1.7,2.2-2.1,3.4c-0.3,0.8-0.1,2,0.3,2.8
		c0.2,0.3,1.7,0.2,2.4-0.2c6.5-3.5,9-9.6,6.4-16.5c-1.7-4.6-2.8-9.2-2.7-14.2c0.1-2.8-0.2-5.5-0.1-8.3c0.1-2.6-1-4.4-3.2-5.8
		c-1.3-0.8-2.4-2.1-3.3-3.3c-1.7-2.2-3.1-4.8-5-6.8c-17.7-19.7-46.9-18.3-62.5,3.2c-1.1,1.5-1.6,3.7-3.2,5c-1.4,1.1-2.8,2.2-4.3,3.3
		c0.1,0.2,0.2,0.4,0.4,0.6c2.6-1.8,5.2-3.5,7.9-5.3c0.2,0.3,0.4,0.5,0.6,0.8c-1.5,1.2-2.9,3-4.6,3.3c-5.5,1.2-6.1,4.9-5.8,9.4
		c0.1,1.9,0,3.9-0.2,5.8c-0.5,3.4-1.1,6.7-1.8,10c-0.3,1.5-0.9,2.9-1.5,4.7c1-0.2,1.5-0.4,1.9-0.5c-0.5,1.1-1.1,2.2-1.6,3.3
		c3.6,1.1,5.2-1.5,7.4-2.8c-1.2,1.4-2.5,2.7-4,3.7c-2.3,1.5-2.8,4.7-0.9,6.7c1,1,2,2.1,3.2,2.8c1.1,0.6,3,1.4,3.7,0.9
		c1.5-1.1,0.3-2.6-0.4-4c-0.9-1.7-1.6-3.6-2.4-5.4c-0.2-0.4-0.6-0.8-0.9-1.2c0.7-0.6,1.4-1.2,2-1.8c1.8-1.8,3.6-2.4,5.9-0.9
		c2,1.3,4.1,2.5,6.3,3.8c0.6-0.8,1.3-1.6,2-2.4c0.2,0.2,0.4,0.4,0.6,0.6c-0.8,0.8-1.5,1.7-2,2.2c0.7,3.1,1.4,6,2,8.9
		C134,148.1,134.6,147.8,135.3,147.6z M169,75.4c-0.2,0.1-0.3,0.3-0.5,0.4c0.3,0.6,0.5,1.6,1,1.7c4.7,1.4,8.8,5.5,14.4,3.7
		c0.3-0.1,0.7,0,0.9,0.2c3.1,2.6,8,2.9,9,8.3c0.6,2.8,3.6,5.1,5.6,7.6c1.5,1.8,2.9,4.3,4.8,5c3.2,1.1,3.9,3.6,4.8,6.1
		c0.8,2,1.6,4.1,2.2,6.1c0.2,0.7,0.2,1.6,0.2,2.4c-0.1,2.3-0.7,4.6-0.3,6.8c0.7,4,1.1,8.5,3.2,11.7c1.9,2.9,1.7,5.2,1.1,8
		c-0.3,1.3-0.6,2.6-0.9,3.9c-0.3,2.2-0.7,4.2-3.2,5.1c-0.9,0.3-1.6,1.4-2.2,2.3c-2,3.3-4,6.6-5.8,10c-0.6,1.2-1.4,2.8-1.1,4
		c0.6,2.4-0.5,4-1.7,5.7c-0.7,1-1.4,2.1-2.1,3.1c-1.4,2.3-2.6,4.9-6,4.7c-0.4,0-0.8,0.2-1.1,0.5c-3.9,3.2-8.3,5.9-11.4,9.8
		c-2.1,2.6-4.2,3.5-7.1,4c-1,0.2-2,0.3-2.9,0.6c-0.6,0.2-1.4,0.9-1.4,1.4c-0.2,2.1-0.1,4.3-0.1,6.7c3.6-0.8,6.8-1.5,9.9-2.1
		c1.4-0.3,3-0.7,4.4-0.4c2.4,0.4,4.5,0,6.3-1.5c3.1-2.5,6.2-5.1,9.2-7.7c1-0.8,1.6-2.1,2.2-3.3c1.3-2.5,2.2-5.2,3.7-7.5
		c2.3-3.4,3.7-7.8,8.3-9.2c0.2-0.1,0.5-0.3,0.6-0.5c3-6.1,9.5-10.7,7.8-18.7c0-0.2,0-0.5,0.1-0.7c2-6.1,1.4-12.8,4.7-18.6
		c0.1-0.1,0.2-0.3,0.2-0.5c-0.1-6.6-1-13.1-4.7-18.6c-1.4-2.1-2.9-4.1-3.8-6.5c-1-2.8-2.2-5.6-3.2-8.4c-0.3-0.8-0.2-1.8-0.5-2.6
		c-0.6-2-0.8-4.3-2-6c-2.1-3.1-4.6-6-7.2-8.7c-1.1-1.2-2.8-2-4.4-2.7c-5.3-2.2-10.7-4.1-14.1-9.2c-0.5-0.7-1.2-1.5-2-1.9
		c-4.5-2-9.1-3.8-13.7-5.6c-1.7-0.7-2.5,0.1-2,1.8c5.6,1.2,10.6,3.3,15.6,6.3c-4,1.9-4.4,2.9-3,7.7C176.9,78.5,172.9,76.9,169,75.4z
		 M142.6,64.3c-0.4-0.1-0.6-0.2-0.8-0.2c-6.4,2.6-14.1,2.8-18.1,9.8c-0.1,0.2-0.3,0.4-0.5,0.5c-4.3,2.2-8.6,4.4-12.8,6.6
		c-1.3,0.7-2.8,1.3-3.7,2.4c-2.7,3-5.3,6.1-7.7,9.3c-0.9,1.3-1.3,3-1.7,4.6c-0.4,1.7-0.4,3.6-1,5.2c-1.1,3.4-2.5,6.7-3.8,10.1
		c-0.3,0.7-0.9,1.3-1.4,2c-1.1,1.7-2.7,3.2-3.3,5.1c-1.2,3.6-1.9,7.3-2.6,11c-0.3,1.4-0.4,3.4,0.4,4.3c1.8,2.4,1.9,5.1,2.3,7.7
		c0.7,5,3.2,9.7,1.8,15c-0.1,0.6,0,1.4,0.4,1.9c3.7,5.3,4.6,12.6,11.6,15.3c0.1,0.1,0.3,0.2,0.4,0.3c2.7,4.9,6.9,8.8,8.4,14.4
		c0.4,1.4,1.4,2.9,2.5,3.9c2.6,2.4,5.4,4.5,8,6.8c2.3,2,4.7,3.1,7.8,2.1c0.6-0.2,1.5,0.1,2.2,0.2c3.8,0.8,7.6,1.6,11.6,2.5
		c0-1.9-0.1-3.3,0-4.7c0.3-2.3-0.4-3.4-2.9-3.8c-3.4-0.6-7.5-0.5-8.8-5c-0.1-0.3-0.5-0.5-0.7-0.7c-2.9-2.4-5.8-4.9-8.7-7.2
		c-0.9-0.7-2-1.7-3-1.7c-3.2,0.1-4.2-2.2-5.6-4.2c-1.2-1.8-2.5-3.6-3.6-5.4c-0.4-0.6-0.5-1.5-0.7-2.3c-0.4-2-0.3-4.2-1.2-5.9
		c-1.5-3.2-3.5-6.3-5.4-9.3c-0.6-0.9-1.2-2.1-2.1-2.4c-2.9-1.1-3.2-3.5-3.6-6c-0.3-1.6-0.6-3.3-1-4.9c-0.6-2-0.8-3.8,1.1-5.4
		c0.8-0.7,1.1-2,1.4-3.2c0.8-3.1,1.4-6.2,2.2-9.3c0.6-2.4,0.9-4.7-0.3-7.1c-0.3-0.5-0.1-1.5,0.1-2.1c1.1-3.2,2.3-6.4,3.6-9.6
		c0.3-0.7,1.1-1.3,1.8-1.8c1.3-1,2.9-1.7,4-2.9c2.4-2.6,4.6-5.3,6.7-8.1c0.8-1,1.8-2.1,1.8-3.2c0-2.7,1.7-3.7,3.6-4.8
		c2.8-1.5,5.3-3.9,8.9-2.5c0.5,0.2,1.3-0.1,2-0.3c3.1-1.2,6.2-2.5,9.3-3.8c0.6-0.3,0.9-1.2,1.3-1.8c-0.2-0.2-0.3-0.3-0.5-0.5
		c-4,1.5-8.1,3-11.9,4.4c0-2,0.4-3.5-0.1-4.7c-0.5-1.1-1.9-1.9-3.4-3.3c5.2-2.1,10.2-4.1,15.6-6.3C142.6,65.7,142.6,65.1,142.6,64.3
		z M136.1,183c2.5,1.1,4.7,0.1,6.8-1.3c2.3-1.5,4.8-2.8,7.1-4.3c3.6-2.2,7.2-2.3,10.9,0c3.6,2.2,7.3,4.4,11,6.5
		c1.1,0.6,2.6,1,3.7,0.7c3.5-0.8,5.9-3.1,6.7-6.7c0.4-1.9,0.9-3.8,1-5.7c0.5-7.9,0.9-15.9,1.2-23.8c0-1.1-0.8-2.2-1.2-3.3
		c-0.8,0.9-2.1,1.8-2.3,2.9c-0.5,3-0.5,6.2-0.7,9.2c-0.2,3.2-0.1,6.4-0.4,9.5c-0.1,0.9-1.3,1.6-2,2.5c-0.7-0.7-1.4-1.3-2.1-2
		c-2-2.4-3.5-5.5-6-7.2c-9.2-6.1-18.8-6.1-28.4-0.5c-3.1,1.8-5.3,4.5-6.7,7.9c-0.3,0.7-1.3,1.8-1.6,1.7c-0.9-0.3-1.8-1.1-2.2-1.9
		c-0.4-0.8-0.3-2-0.3-3c-0.1-3.9-0.2-7.7-0.3-12c-2.4,1.6-4,2.4-3.4,5.6c0.9,5,0.4,10.2,0.8,15.4c0.1,1.9,0.9,3.7,1.4,5.8
		c3.1-0.9,6.5-1.3,9.4-2.9c7.3-4,7.5-4.4,9.8-3.5c-3.7,2.3-7,4.4-10.3,6.5C139.7,181.5,135.8,181.3,136.1,183z M123.3,149.9
		c-3.6,3.9-6.6,7.3-9.7,10.5c-2.1,2.2-3.9,4.1-3.5,7.8c0.3,2.4,0.9,4.1,2.4,5.9c3.6-3.5,7.2-6.8,10.6-10.2c0.4-0.4,0.8-1,0.8-1.5
		C123.8,158.6,123.5,154.6,123.3,149.9z M198.8,174.2c1.8-1.9,3-3.7,2.2-6.2c-0.2-0.6,0.2-1.3,0.1-2c-0.1-0.9-0.2-2-0.7-2.6
		c-3.5-4-7.2-7.9-10.8-11.8c-0.4-0.4-0.9-0.8-1.6-1.4c-0.2,4.2-0.5,7.9-0.5,11.6c0,0.8,0.4,1.8,1,2.3
		C191.9,167.6,195.3,170.9,198.8,174.2z M191.2,95.2c1.7-0.9,2.2-2,0.9-3.5c-0.4-0.5-0.6-1.3-0.6-1.9c0.2-2.7-1.9-3.5-3.6-4
		c-0.9-0.3-2.4,1.1-3.8,1.9C186.7,90.5,188.9,92.9,191.2,95.2z M127.1,87.9c-0.6-0.5-1-0.9-1.4-1.3c-1.6-1.4-4.9-0.3-5.5,1.7
		c-0.5,1.8-1,3.6-1.6,5.6c0.4,0.4,1,0.9,1.6,1.4C122.5,92.8,124.7,90.4,127.1,87.9z M126.3,152.9c3.7-0.7,4.5-1.6,3.7-4.3
		c-0.4-1.3-1.5-2.3-2.4-3.5c-0.5,1.3-1.1,2.6-1.3,3.9c-0.1,0.7,0.4,1.6,0.6,2.4c0.2-0.1,0.4-0.1,0.7-0.2
		C127.2,151.8,126.9,152.2,126.3,152.9z"/>
	<path d="M160.6,24.4c-0.1,0-0.2,0.1-0.2,0.1c0.7-1.4,1.4-2.8,2.2-4.4c0.3,0.1,1,0.4,1.8,0.6c1.4,1,2.8,2,4.3,2.9
		c14.1,8.2,28.2,16.3,42.3,24.4c0.6,0.4,1.3,0.7,2,1c2.9,1.6,5.8,3.2,8.7,4.9c-1.1,1.4-2.1,2.8-3,3.9c-18.6-10.8-36.3-21-54.1-31.2
		C163.3,25.8,162,25.1,160.6,24.4z"/>
	<path d="M89.5,195.6c1.4-1.4,2.7-2.7,4.1-4.1c0.8,0.7,1.6,1.4,2.5,2c16.5,9.6,32.9,19.2,49.5,28.5c3.7,2.1,5.5,4.5,5.3,8.6
		c-5.7-3.3-11.3-6.6-17-9.9c-13.7-7.9-27.5-15.9-41.2-23.8C91.7,196.3,90.6,196,89.5,195.6z"/>
	<path d="M235.6,62.1c3.2,1.8,6.4,3.7,9.5,5.5c4.2,1.6,4.4,4.8,4.4,8.8c-0.1,33.2-0.1,66.4,0,99.6c0,2.1-0.6,3.3-2.5,4.3
		c-6,3.3-11.9,6.8-17.8,10.3c-0.9,0.5-1.7,1.3-2.5,2c-1.3-1-2.6-2-4.3-3.3c7.2-4.2,13.5-7.9,19.9-11.5c1.8-1,2.6-2.1,2.5-4.3
		c-0.1-32.7-0.1-65.4,0-98.1c0-1.8-0.5-2.8-2.1-3.7c-6.6-3.7-13.2-7.6-19.9-11.4c1.1-1.3,2-2.4,2.9-3.5
		C229.2,58.6,232.4,60.3,235.6,62.1z"/>
	<path d="M88.1,188.5c-1.2,1.4-2.4,2.7-3.6,4.1c-1.1-0.8-2.1-1.6-3.2-2.3c-6-3.5-12-7-18-10.4c-1.3-0.8-1.8-1.6-1.8-3.2
		c0-34.7,0-69.5,0-104.2c0-1.5,0.4-2.4,1.8-3.2c7.3-4.2,14.6-8.4,22.1-12.8c1,1.1,2,2.3,3.1,3.6c-6.7,3.9-13.3,7.7-19.9,11.5
		c-1.6,0.9-2.2,1.8-2.2,3.7c0.1,32.8,0.1,65.6,0,98.4c0,1.9,0.6,3,2.3,3.9c5.3,2.9,10.4,6,15.7,9C85.5,187.3,86.8,187.9,88.1,188.5z
		"/>
	<path class="st0" d="M161.3,224.2c0.9-0.7,1.7-1.5,2.7-2.1c16.9-9.8,33.8-19.6,50.7-29.3c0.9-0.5,2-0.9,2.9-1.3
		c-1.1,0.8-2.1,1.7-3.2,2.3c-16.7,9.7-33.5,19.4-50.3,29C163.3,223.4,162.3,223.8,161.3,224.2z"/>
	<path class="st0" d="M150.4,24.5c-0.5,0.5-0.9,1.2-1.5,1.5c-17.7,10.3-35.5,20.5-53.2,30.8c-0.5,0.3-1.1,0.5-1.6,0.7
		c0.4-0.4,0.7-0.9,1.2-1.2C113.6,45.7,132,35.1,150.4,24.5z"/>
	<path d="M135.3,147.6c-0.6,0.3-1.3,0.6-2,0.8c-0.7-3-1.3-5.8-2-8.9c0.5-0.5,1.2-1.3,2-2.2c-0.2-0.2-0.4-0.4-0.6-0.6
		c-0.7,0.8-1.4,1.6-2,2.4c-2.2-1.3-4.3-2.5-6.3-3.8c-2.3-1.5-4.2-0.9-5.9,0.9c-0.6,0.6-1.4,1.2-2,1.8c0.3,0.4,0.7,0.8,0.9,1.2
		c0.8,1.8,1.5,3.7,2.4,5.4c0.7,1.4,1.9,2.9,0.4,4c-0.6,0.5-2.5-0.3-3.7-0.9c-1.2-0.7-2.3-1.7-3.2-2.8c-2-2.1-1.4-5.2,0.9-6.7
		c1.5-1,2.8-2.3,4-3.7c-2.2,1.3-3.8,3.9-7.4,2.8c0.6-1.2,1.1-2.2,1.6-3.3c-0.4,0.1-1,0.2-1.9,0.5c0.6-1.8,1.2-3.2,1.5-4.7
		c0.7-3.3,1.3-6.7,1.8-10c0.3-1.9,0.3-3.9,0.2-5.8c-0.3-4.5,0.3-8.2,5.8-9.4c1.7-0.4,3.1-2.2,4.6-3.3c-0.2-0.3-0.4-0.5-0.6-0.8
		c-2.6,1.8-5.2,3.5-7.9,5.3c-0.1-0.2-0.2-0.4-0.4-0.6c1.4-1.1,2.8-2.2,4.3-3.3c1.7-1.3,2.1-3.5,3.2-5c15.6-21.5,44.8-22.9,62.5-3.2
		c1.9,2.1,3.3,4.6,5,6.8c1,1.2,2,2.4,3.3,3.3c2.2,1.4,3.3,3.2,3.2,5.8c-0.1,2.8,0.2,5.5,0.1,8.3c-0.1,4.9,1,9.6,2.7,14.2
		c2.6,6.9,0.1,13-6.4,16.5c-0.7,0.4-2.2,0.5-2.4,0.2c-0.4-0.7-0.6-1.9-0.3-2.8c0.4-1.2,1.4-2.3,2.1-3.4c1.3-2.1,1.4-4.3-0.2-6.3
		c-1.5-1.9-3.4-2-6.1-0.8c-5.6,2.5-8.8,6.5-8.3,12.9c0.2,2.2,0.3,4.4,0,6.5c-0.1,1-1.1,2.5-1.9,2.6c-0.9,0.2-2.2-0.8-3-1.6
		c-0.7-0.7-1-2-1.1-3c-0.5-6.1-4.4-9.3-9.6-11c-6.3-2.2-12.5-1.7-18.3,2.1c-2.8,1.9-4.8,4.3-5.3,7.9c-0.2,1.5-0.5,3-1.3,4.2
		c-0.6,0.8-2.1,1.7-3,1.5c-0.8-0.2-1.7-1.7-1.9-2.7C132.4,152,132.6,149.3,135.3,147.6z M126.3,121.6c4.3-1.6,9.4-3.6,14.4-5.4
		c2.4-0.9,4.2-2.3,4.6-4.8c0.5-3.3,0.6-6.7,0.9-10c0.1-1.4-0.6-2-2-1.9c-0.8,0.1-1.5,0.1-2.2,0.3c-5.8,0.9-11.6,1.9-16.5,5.4
		c-3.8,2.6-5,6.5-3.5,10.8c0.6,1.9,1.9,3,3.9,2.9c1.8,0,3.6-0.2,5.7-0.4C129.4,119.7,127.5,120.9,126.3,121.6z M164.9,104.2
		c0.1,1.4,0.3,3.8,0.5,6.1c0.3,2.4,1.3,4.7,3.6,5.3c5.3,1.3,10.7,2.3,16.1,3.2c1.9,0.3,3.2-1,3.8-2.9c1.6-4.8,0.1-8.8-4.5-11.5
		c-4.8-2.9-10.2-4-15.7-4.7C164.8,99.2,164.8,99.2,164.9,104.2z M163.1,122.3c-0.4-5.7-2.2-10.3-5.3-14.4c-1.7-2.2-3.1-2.4-4.5,0
		c-2,3.5-3.8,7.2-4.9,11.1c-0.6,2.1-0.2,4.8,0.5,7.1c0.9,2.9,2.5,3.2,5.2,1.7c0.7-0.4,2.1-0.5,2.8,0c2.8,2,4.1,0.7,5.3-1.7
		C162.8,124.9,162.9,123.3,163.1,122.3z"/>
	<path d="M169,75.4c4,1.5,8,3,12.4,4.7c-1.4-4.7-0.9-5.8,3-7.7c-5-3-10-5.2-15.6-6.3c-0.5-1.8,0.3-2.5,2-1.8
		c4.6,1.8,9.1,3.7,13.7,5.6c0.8,0.3,1.5,1.1,2,1.9c3.4,5.1,8.8,7,14.1,9.2c1.6,0.7,3.2,1.5,4.4,2.7c2.6,2.7,5.1,5.6,7.2,8.7
		c1.1,1.7,1.4,3.9,2,6c0.2,0.9,0.2,1.8,0.5,2.6c1,2.8,2.1,5.6,3.2,8.4c0.9,2.4,2.4,4.3,3.8,6.5c3.7,5.5,4.6,12,4.7,18.6
		c0,0.2-0.1,0.3-0.2,0.5c-3.3,5.7-2.8,12.5-4.7,18.6c-0.1,0.2-0.1,0.5-0.1,0.7c1.7,8-4.8,12.7-7.8,18.7c-0.1,0.2-0.3,0.4-0.6,0.5
		c-4.6,1.4-6,5.7-8.3,9.2c-1.5,2.3-2.5,5-3.7,7.5c-0.6,1.2-1.2,2.4-2.2,3.3c-3,2.7-6.1,5.2-9.2,7.7c-1.9,1.5-3.9,1.9-6.3,1.5
		c-1.4-0.2-2.9,0.2-4.4,0.4c-3.2,0.6-6.3,1.3-9.9,2.1c0-2.4-0.1-4.6,0.1-6.7c0-0.5,0.8-1.1,1.4-1.4c0.9-0.4,1.9-0.5,2.9-0.6
		c2.8-0.5,5-1.4,7.1-4c3-3.8,7.5-6.6,11.4-9.8c0.3-0.3,0.8-0.5,1.1-0.5c3.4,0.2,4.6-2.4,6-4.7c0.7-1.1,1.4-2.1,2.1-3.1
		c1.2-1.7,2.3-3.3,1.7-5.7c-0.3-1.2,0.4-2.8,1.1-4c1.8-3.4,3.8-6.7,5.8-10c0.6-0.9,1.3-2,2.2-2.3c2.5-0.9,2.9-2.9,3.2-5.1
		c0.2-1.3,0.5-2.6,0.9-3.9c0.6-2.8,0.8-5.1-1.1-8c-2.1-3.3-2.5-7.7-3.2-11.7c-0.4-2.2,0.2-4.5,0.3-6.8c0-0.8,0-1.6-0.2-2.4
		c-0.7-2.1-1.5-4.1-2.2-6.1c-1-2.5-1.6-4.9-4.8-6.1c-1.9-0.7-3.3-3.2-4.8-5c-2-2.4-5-4.8-5.6-7.6c-1.1-5.4-5.9-5.8-9-8.3
		c-0.2-0.2-0.7-0.2-0.9-0.2c-5.6,1.8-9.7-2.3-14.4-3.7c-0.5-0.1-0.7-1.1-1-1.7C168.6,75.7,168.8,75.5,169,75.4z M219.6,116.9
		c-1.7,0.7-2.8,1.3-3.9,1.4c-2.5,0.3-3.3,1.1-2.8,3.6c0.7,3.7,1.5,7.3,2.5,10.9c0.9,3.1,3.1,4,6.5,3.2c1.5-0.4,2.6-3.1,2.2-5.4
		c-0.7-3.4-1.5-6.8-2.4-10.2C221.2,119.1,220.2,117.9,219.6,116.9z M213.1,153.5c-3.9,4.5-6.7,9-8.5,14c-0.4,1.1-0.2,2.3,1.6,2.5
		c0.9,0.1,1.6,1.1,2.5,1.5c0.7,0.3,1.7,0.6,2.3,0.3c0.9-0.4,1.6-1.2,2.1-2c1.8-2.9,3.6-5.8,5.2-8.9c0.6-1.1,0.6-2.4,1-3.9
		C216.1,157.8,214.3,156.6,213.1,153.5z M193.9,183.9c-5.3,2.9-9.5,6.5-12.8,10.3c1.2,2.4,2.1,4.1,3,6c3.2,0.4,12.6-6.5,14.1-10.8
		C195.2,189.3,194,187.3,193.9,183.9z M200.4,83.5c-0.4,3-2.2,4.3-4.9,4.4c0.8,3.8,7.9,12.1,10.8,12.9c0.7-0.8,1.2-1.9,2.1-2.4
		c0.9-0.6,2.1-0.7,3.1-1C211.4,93.8,204.4,84.9,200.4,83.5z"/>
	<path d="M142.6,64.3c0,0.7,0,1.4,0,1.3c-5.4,2.2-10.4,4.2-15.6,6.3c1.5,1.4,2.9,2.2,3.4,3.3c0.5,1.2,0.1,2.7,0.1,4.7
		c3.8-1.4,7.9-2.9,11.9-4.4c0.2,0.2,0.3,0.3,0.5,0.5c-0.4,0.6-0.7,1.5-1.3,1.8c-3,1.4-6.2,2.6-9.3,3.8c-0.6,0.2-1.4,0.5-2,0.3
		c-3.6-1.4-6.1,1-8.9,2.5c-2,1-3.7,2-3.6,4.8c0,1.1-1,2.2-1.8,3.2c-2.2,2.8-4.4,5.5-6.7,8.1c-1.1,1.2-2.7,1.9-4,2.9
		c-0.7,0.5-1.5,1.1-1.8,1.8c-1.3,3.2-2.5,6.4-3.6,9.6c-0.2,0.6-0.4,1.6-0.1,2.1c1.2,2.3,0.9,4.7,0.3,7.1c-0.8,3.1-1.4,6.2-2.2,9.3
		c-0.3,1.1-0.6,2.5-1.4,3.2c-1.9,1.6-1.7,3.4-1.1,5.4c0.5,1.6,0.8,3.3,1,4.9c0.4,2.5,0.7,4.9,3.6,6c0.9,0.3,1.5,1.5,2.1,2.4
		c1.9,3.1,3.9,6.1,5.4,9.3c0.8,1.8,0.8,3.9,1.2,5.9c0.2,0.8,0.3,1.6,0.7,2.3c1.1,1.9,2.4,3.6,3.6,5.4c1.4,2,2.4,4.4,5.6,4.2
		c1,0,2.1,0.9,3,1.7c2.9,2.4,5.8,4.8,8.7,7.2c0.3,0.2,0.6,0.4,0.7,0.7c1.3,4.5,5.4,4.4,8.8,5c2.5,0.4,3.2,1.5,2.9,3.8
		c-0.2,1.4,0,2.8,0,4.7c-4-0.9-7.8-1.7-11.6-2.5c-0.7-0.1-1.5-0.4-2.2-0.2c-3.1,1-5.5-0.1-7.8-2.1c-2.7-2.3-5.5-4.4-8-6.8
		c-1.1-1-2.1-2.5-2.5-3.9c-1.5-5.6-5.8-9.5-8.4-14.4c-0.1-0.1-0.2-0.3-0.4-0.3c-7-2.7-8-10.1-11.6-15.3c-0.4-0.5-0.5-1.4-0.4-1.9
		c1.3-5.2-1.1-10-1.8-15c-0.4-2.6-0.5-5.3-2.3-7.7c-0.8-1-0.6-2.9-0.4-4.3c0.7-3.7,1.4-7.4,2.6-11c0.6-1.9,2.2-3.4,3.3-5.1
		c0.4-0.7,1.1-1.3,1.4-2c1.3-3.3,2.7-6.7,3.8-10.1c0.5-1.7,0.5-3.5,1-5.2c0.4-1.6,0.8-3.3,1.7-4.6c2.4-3.2,5-6.3,7.7-9.3
		c1-1.1,2.4-1.7,3.7-2.4c4.3-2.2,8.5-4.4,12.8-6.6c0.2-0.1,0.4-0.3,0.5-0.5c4-7,11.7-7.3,18.1-9.8C142,64.1,142.2,64.2,142.6,64.3z
		 M92,117c-0.4,0.5-1.4,1.1-1.6,1.9c-1.2,4.4-2.4,8.8-3.1,13.3c-0.2,1.1,1.3,3.6,2.2,3.6c1.9,0.1,4.9,1.3,5.8-1.7
		c1.3-4.4,2.3-8.8,3.2-13.3c0.3-1.6-0.5-2.8-2.7-2.5C94.8,118.4,93.6,117.5,92,117z M106.5,169.3c0.5-3.4-5.2-13.7-7.1-14.4
		c-1.6,0.9-2.6,1.6-3.7,2c-1.1,0.4-2.4,0.4-3.5,0.6c0.3,4.5,6.4,13.9,9.2,14.8C103.2,171.1,104.8,170.2,106.5,169.3z M127,200.3
		c1-1.8,2-3.1,2.7-4.6c0.3-0.6,0.2-1.9-0.2-2.3c-3.3-2.9-6.7-5.7-10.2-8.5c-0.4-0.4-1.2-0.3-2-0.5c0.4,3.3-1.4,4.7-4.1,5.3
		C115.1,194.2,124.3,200.8,127,200.3z M116.3,87.7c-3.6,0-5-1.6-5.4-4.2c-4.1,1.3-11.3,10.6-11,13.1c2.1,1.4,3.8,2.6,5.9,4
		C109.8,97.6,113.3,93.3,116.3,87.7z"/>
	<path d="M136.1,183c-0.3-1.7,3.6-1.4,1.9-3.8c3.3-2.1,6.6-4.2,10.3-6.5c-2.3-0.8-2.5-0.5-9.8,3.5c-2.9,1.6-6.3,2-9.4,2.9
		c-0.5-2.1-1.3-4-1.4-5.8c-0.3-5.1,0.1-10.4-0.8-15.4c-0.6-3.2,1-4,3.4-5.6c0.1,4.3,0.2,8.1,0.3,12c0,1-0.1,2.1,0.3,3
		c0.4,0.8,1.4,1.6,2.2,1.9c0.3,0.1,1.3-1,1.6-1.7c1.4-3.3,3.6-6,6.7-7.9c9.6-5.6,19.2-5.6,28.4,0.5c2.5,1.6,4,4.8,6,7.2
		c0.6,0.7,1.4,1.3,2.1,2c0.7-0.8,1.9-1.6,2-2.5c0.3-3.1,0.3-6.3,0.4-9.5c0.1-3.1,0.2-6.2,0.7-9.2c0.2-1,1.5-1.9,2.3-2.9
		c0.4,1.1,1.2,2.2,1.2,3.3c-0.3,7.9-0.7,15.9-1.2,23.8c-0.1,1.9-0.6,3.8-1,5.7c-0.8,3.6-3.2,5.9-6.7,6.7c-1.1,0.3-2.7-0.1-3.7-0.7
		c-3.7-2-7.4-4.3-11-6.5c-3.7-2.2-7.3-2.2-10.9,0c-2.4,1.4-4.8,2.7-7.1,4.3C140.8,183.1,138.7,184.1,136.1,183z"/>
	<path d="M123.3,149.9c0.3,4.7,0.5,8.7,0.7,12.6c0,0.5-0.4,1.1-0.8,1.5c-3.5,3.4-7,6.7-10.6,10.2c-1.5-1.8-2.1-3.5-2.4-5.9
		c-0.5-3.7,1.4-5.6,3.5-7.8C116.7,157.2,119.7,153.9,123.3,149.9z"/>
	<path d="M198.8,174.2c-3.5-3.4-7-6.6-10.4-9.9c-0.6-0.6-1-1.6-1-2.3c0.1-3.7,0.3-7.5,0.5-11.6c0.7,0.6,1.2,0.9,1.6,1.4
		c3.6,3.9,7.3,7.8,10.8,11.8c0.5,0.6,0.6,1.7,0.7,2.6c0.1,0.6-0.3,1.4-0.1,2C201.8,170.5,200.6,172.3,198.8,174.2z"/>
	<path d="M191.2,95.2c-2.2-2.4-4.5-4.8-7.1-7.6c1.4-0.7,2.8-2.1,3.8-1.9c1.7,0.5,3.9,1.4,3.6,4c-0.1,0.6,0.2,1.4,0.6,1.9
		C193.4,93.3,192.9,94.3,191.2,95.2z"/>
	<path d="M127.1,87.9c-2.4,2.5-4.6,4.9-6.9,7.4c-0.6-0.5-1.2-1.1-1.6-1.4c0.6-2,1.1-3.8,1.6-5.6c0.6-2,3.9-3.1,5.5-1.7
		C126.1,87,126.5,87.4,127.1,87.9z"/>
	<path class="st0" d="M126.3,152.9c0.5-0.7,0.9-1.1,1.2-1.6c-0.2,0.1-0.4,0.1-0.7,0.2c-0.2-0.8-0.7-1.6-0.6-2.4
		c0.3-1.3,0.9-2.6,1.3-3.9c0.8,1.1,2,2.2,2.4,3.5C130.9,151.3,130,152.2,126.3,152.9z"/>
	<path class="st0" d="M126.3,121.6c1.1-0.7,3-1.8,5.2-3.1c-2.1,0.2-3.9,0.3-5.7,0.4c-2,0-3.2-1.1-3.9-2.9c-1.5-4.3-0.3-8.2,3.5-10.8
		c5-3.4,10.7-4.5,16.5-5.4c0.7-0.1,1.5-0.2,2.2-0.3c1.4-0.1,2.1,0.5,2,1.9c-0.3,3.3-0.4,6.7-0.9,10c-0.4,2.6-2.2,4-4.6,4.8
		C135.7,118,130.7,119.9,126.3,121.6z"/>
	<path class="st0" d="M164.9,104.2c-0.1-4.9-0.1-5,3.9-4.5c5.5,0.7,10.9,1.8,15.7,4.7c4.6,2.7,6.1,6.7,4.5,11.5
		c-0.6,1.9-1.9,3.2-3.8,2.9c-5.4-0.9-10.8-1.9-16.1-3.2c-2.3-0.6-3.3-2.9-3.6-5.3C165.2,107.9,165,105.6,164.9,104.2z"/>
	<path class="st0" d="M163.1,122.3c-0.2,0.9-0.3,2.5-0.9,3.8c-1.2,2.4-2.5,3.7-5.3,1.7c-0.6-0.4-2-0.4-2.8,0
		c-2.7,1.4-4.3,1.2-5.2-1.7c-0.7-2.2-1.1-4.9-0.5-7.1c1.1-3.8,2.9-7.6,4.9-11.1c1.4-2.4,2.7-2.2,4.5,0
		C160.9,112,162.7,116.6,163.1,122.3z"/>
	<path class="st0" d="M219.6,116.9c0.6,1,1.7,2.2,2,3.5c1,3.4,1.7,6.8,2.4,10.2c0.5,2.3-0.7,5-2.2,5.4c-3.4,0.9-5.6-0.1-6.5-3.2
		c-1-3.6-1.8-7.3-2.5-10.9c-0.5-2.5,0.4-3.3,2.8-3.6C216.8,118.2,217.8,117.5,219.6,116.9z"/>
	<path class="st0" d="M213.1,153.5c1.2,3.1,2.9,4.3,6.2,3.4c-0.4,1.5-0.4,2.9-1,3.9c-1.6,3-3.4,6-5.2,8.9c-0.5,0.8-1.3,1.6-2.1,2
		c-0.6,0.3-1.6,0-2.3-0.3c-0.9-0.4-1.6-1.3-2.5-1.5c-1.7-0.2-2-1.4-1.6-2.5C206.5,162.5,209.3,158,213.1,153.5z"/>
	<path class="st0" d="M193.9,183.9c0,3.4,1.2,5.3,4.3,5.6c-1.5,4.3-10.9,11.2-14.1,10.8c-1-1.9-1.9-3.7-3-6
		C184.4,190.4,188.6,186.8,193.9,183.9z"/>
	<path class="st0" d="M200.4,83.5c3.9,1.4,10.9,10.3,11.1,13.8c-1,0.3-2.2,0.4-3.1,1c-0.9,0.6-1.4,1.6-2.1,2.4
		c-2.9-0.9-9.9-9.2-10.8-12.9C198.3,87.7,200.1,86.5,200.4,83.5z"/>
	<path class="st0" d="M92,117c1.6,0.6,2.8,1.4,3.8,1.3c2.2-0.2,3,1,2.7,2.5c-0.9,4.5-1.9,9-3.2,13.3c-0.9,3-3.9,1.8-5.8,1.7
		c-0.9-0.1-2.4-2.5-2.2-3.6c0.7-4.5,1.9-8.9,3.1-13.3C90.7,118.1,91.6,117.5,92,117z"/>
	<path class="st0" d="M106.5,169.3c-1.7,1-3.3,1.9-5.1,2.9c-2.8-0.8-9-10.2-9.2-14.8c1.2-0.2,2.4-0.2,3.5-0.6c1.1-0.4,2.1-1.1,3.7-2
		C101.3,155.5,107,165.9,106.5,169.3z"/>
	<path class="st0" d="M127,200.3c-2.8,0.5-12-6-13.9-10.6c2.7-0.6,4.5-2,4.1-5.3c0.8,0.2,1.6,0.2,2,0.5c3.4,2.8,6.9,5.6,10.2,8.5
		c0.4,0.4,0.5,1.7,0.2,2.3C129.1,197.1,128.1,198.5,127,200.3z"/>
	<path class="st0" d="M116.3,87.7c-3,5.6-6.5,9.9-10.5,13c-2.2-1.5-3.8-2.6-5.9-4c-0.2-2.5,7-11.8,11-13.1
		C111.3,86.2,112.7,87.7,116.3,87.7z"/>
</g>
<g id="Layer_2">
	<g>
		<path class="st0" d="M591.1,399.6C591.1,399.6,591.1,399.6,591.1,399.6c0,3.4-0.1,6.7,0,10.1c0.2,6.4-4.9,12.2-11.8,12.4
			c-6.4,0.2-12.1-4.9-12.4-11.3c-0.1-1.5-0.1-3.1-0.1-4.7c0-3.6,0-7.2,0-10.7c0-2.3,0-4.6,0-6.9c0-0.2-0.2-0.5-0.3-0.6
			c-2.4-1.4-4.7-2.8-7.1-4.1c-5.3-3-11.2-2-15.3,2.5c-4.7,5.1-4.3,13.1,1,17.4c1.4,1.2,3,2.2,4.5,3.2c8.2,5.7,13.4,13.4,15.9,23.1
			c1,3.8,1.2,7.8,1.7,11.7c0.7,6.2,4.9,10.9,11.3,11.2c4.6,0.2,9.1-2.3,11.1-6.5c1-2.1,1.3-4.4,1.5-6.7c0.3-3.6,0.7-7.2,1.7-10.6
			c2.6-9.4,7.9-16.9,16-22.4c1-0.7,2-1.3,3-2c3.5-2.6,5.5-6.1,5.2-10.5c-0.3-4.9-2.8-8.6-7.2-10.8c-3.9-1.9-7.7-1.5-11.4,0.6
			c-2.4,1.3-4.7,2.7-7.1,4.1c-0.2,0.1-0.3,0.5-0.3,0.7C591.1,392.3,591.1,396,591.1,399.6z M587,403.2
			C587,403.2,587,403.2,587,403.2c0-2.3,0-4.7,0-7c-0.1-5.1-4.9-8.8-9.9-7.6c-3.7,0.9-6.2,4.1-6.2,7.9c0,4.4,0,8.8,0,13.3
			c0,4.8,3.7,8.5,8.5,8.3c4-0.1,7.6-3.7,7.6-7.6C587.1,408,587,405.6,587,403.2z"/>
		<path d="M591.1,399.6c0-3.6,0-7.3,0-10.9c0-0.2,0.1-0.6,0.3-0.7c2.3-1.4,4.7-2.7,7.1-4.1c3.7-2.1,7.6-2.5,11.4-0.6
			c4.4,2.2,6.9,5.8,7.2,10.8c0.3,4.5-1.7,7.9-5.2,10.5c-1,0.7-2,1.4-3,2c-8.1,5.5-13.4,13-16,22.4c-1,3.5-1.4,7.1-1.7,10.6
			c-0.2,2.3-0.5,4.6-1.5,6.7c-2,4.2-6.5,6.7-11.1,6.5c-6.4-0.3-10.7-5-11.3-11.2c-0.4-3.9-0.7-7.9-1.7-11.7
			c-2.4-9.6-7.6-17.4-15.9-23.1c-1.5-1.1-3.1-2.1-4.5-3.2c-5.3-4.3-5.6-12.3-1-17.4c4.1-4.5,10-5.4,15.3-2.5
			c2.4,1.3,4.8,2.7,7.1,4.1c0.2,0.1,0.3,0.4,0.3,0.6c0,2.3,0,4.6,0,6.9c0,3.6,0,7.2,0,10.7c0,1.6,0,3.1,0.1,4.7
			c0.3,6.4,6,11.5,12.4,11.3c6.9-0.2,12-6,11.8-12.4C591,406.3,591.1,403,591.1,399.6C591.1,399.6,591.1,399.6,591.1,399.6z"/>
		<path d="M587,403.2c0,2.4,0,4.8,0,7.2c0,4-3.7,7.5-7.6,7.6c-4.7,0.2-8.5-3.6-8.5-8.3c0-4.4,0-8.8,0-13.3c0-3.8,2.5-7,6.2-7.9
			c4.9-1.2,9.8,2.5,9.9,7.6C587.1,398.5,587,400.9,587,403.2C587,403.2,587,403.2,587,403.2z"/>
	</g>
</g>
</svg>
